<svg width="151" height="104" viewBox="0 0 151 104" fill="none" xmlns="http://www.w3.org/2000/svg">
<path d="M150.17 100.993C150.17 101.04 116.551 101.079 75.0849 101.079C33.6187 101.079 0 101.04 0 100.993C0 100.946 33.6121 100.907 75.0849 100.907C116.558 100.907 150.17 100.946 150.17 100.993Z" fill="#263238"/>
<path d="M103.205 30.7887L101.876 30.513C100.69 30.1575 100.019 30.0046 99.7436 29.6159C99.3781 29.0943 100.076 28.7953 100.076 28.7953C100.076 28.7953 99.2585 28.3202 99.4479 27.7986C99.4943 27.6952 99.5725 27.6092 99.671 27.553C99.7696 27.4969 99.8834 27.4735 99.9961 27.4863C99.9961 27.4863 99.2851 27.0312 99.1954 26.679C99.0725 26.2006 99.6638 26.0743 99.6638 26.0743C98.7402 25.2172 98.9628 24.5926 99.2186 24.5793C99.4744 24.566 100.215 25.1009 100.215 25.1009C100.88 25.4331 102.647 26.3866 102.152 25.2039C101.657 24.0211 101.72 22.9281 101.943 22.6423C102.002 22.5814 102.078 22.5406 102.162 22.5258C102.245 22.5109 102.331 22.5227 102.407 22.5596C102.483 22.5964 102.546 22.6563 102.586 22.7308C102.626 22.8054 102.642 22.8907 102.631 22.9746C102.66 23.4065 102.748 23.8324 102.893 24.2404C102.998 24.5719 103.159 24.8831 103.368 25.1607C103.614 25.4929 103.833 25.7487 104.033 25.968L104.993 27.3435L103.205 30.7887Z" fill="#FFBE9D"/>
<path d="M98.0888 99.6641L99.2317 97.2521L103.763 99.3651L102.129 102.91L101.84 102.797C100.557 102.282 95.3545 100.096 94.6369 99.4515C93.8362 98.7338 98.0888 99.6641 98.0888 99.6641Z" fill="#1C1C1C"/>
<g opacity="0.3">
<path d="M100.501 102.106C100.747 101.756 101.114 101.508 101.531 101.412C101.941 101.31 102.375 101.368 102.743 101.575L102.152 102.84L100.501 102.106Z" fill="white"/>
</g>
<g opacity="0.3">
<path d="M95.9791 99.2755C95.9791 99.2755 94.4509 99.0363 94.514 99.3386C94.5771 99.6409 99.7533 102.046 102.129 102.91L102.169 102.804L96.1087 100.046C96.1087 100.046 96.2383 99.4217 95.9791 99.2755Z" fill="white"/>
</g>
<path d="M102.239 102.834L102.159 102.807L101.93 102.717L101.089 102.368C100.381 102.069 99.4079 101.644 98.3481 101.149C97.2883 100.654 96.3315 100.189 95.6471 99.8402L94.8397 99.4216L94.6238 99.3053L94.5474 99.2621C94.5754 99.2692 94.6023 99.2804 94.6271 99.2953L94.8497 99.4016L95.667 99.8036C96.3547 100.136 97.3116 100.601 98.3714 101.096C99.4312 101.591 100.401 102.02 101.106 102.329L101.936 102.694L102.162 102.794L102.239 102.834Z" fill="#263238"/>
<path d="M96.079 100.116C96.1044 99.9635 96.1133 99.8086 96.1055 99.6542C96.0782 99.5002 96.0336 99.3497 95.9727 99.2057C96.0789 99.3296 96.1458 99.4825 96.1647 99.6446C96.1837 99.8068 96.1538 99.9709 96.079 100.116Z" fill="#263238"/>
<path d="M97.7168 100.063C97.6782 99.9875 97.6566 99.9047 97.6537 99.8202C97.6338 99.7395 97.6338 99.6551 97.6537 99.5743C97.6537 99.5743 97.6969 99.6773 97.7135 99.8135C97.7352 99.895 97.7364 99.9807 97.7168 100.063Z" fill="#263238"/>
<path d="M98.1884 100.04C98.1718 100.04 98.122 99.9633 98.0755 99.857C98.029 99.7507 98.0057 99.661 98.0223 99.6543C98.0389 99.6477 98.0888 99.7274 98.132 99.8337C98.1683 99.8963 98.1877 99.9673 98.1884 100.04Z" fill="#263238"/>
<path d="M98.6169 99.7173C98.6169 99.7339 98.5007 99.6973 98.3678 99.6375C98.2839 99.6096 98.207 99.5643 98.1418 99.5046C98.1418 99.488 98.2614 99.5246 98.391 99.5844C98.4748 99.6123 98.5518 99.6576 98.6169 99.7173Z" fill="#263238"/>
<path d="M98.8396 99.4548C98.7365 99.4703 98.631 99.454 98.5373 99.4083C98.4386 99.3809 98.3505 99.3241 98.2848 99.2455C98.3799 99.2721 98.4722 99.3077 98.5605 99.3518C98.6563 99.3781 98.7497 99.4126 98.8396 99.4548Z" fill="#263238"/>
<path d="M97.7598 99.5943C97.6564 99.5655 97.5587 99.5195 97.4707 99.4581C97.3709 99.3966 97.2775 99.3254 97.1917 99.2454C97.1395 99.1988 97.0927 99.1464 97.0521 99.0893C97.027 99.0536 97.0163 99.0097 97.0222 98.9664C97.0266 98.9424 97.0381 98.9204 97.0553 98.9031C97.0726 98.8859 97.0946 98.8744 97.1186 98.87C97.2063 98.8692 97.2931 98.8877 97.3729 98.9242C97.4527 98.9607 97.5235 99.0142 97.5802 99.0811C97.637 99.148 97.6783 99.2266 97.7013 99.3113C97.7243 99.3959 97.7284 99.4846 97.7133 99.571C97.7093 99.6005 97.6991 99.6289 97.6834 99.6541C97.6943 99.5498 97.6887 99.4444 97.6668 99.3418C97.6358 99.2357 97.576 99.1402 97.494 99.066C97.4464 99.0201 97.3902 98.9842 97.3286 98.9602C97.267 98.9363 97.2013 98.9248 97.1352 98.9265C97.0721 98.9265 97.0654 99.0029 97.102 99.0594C97.1408 99.1128 97.1854 99.1618 97.2349 99.2056C97.3169 99.284 97.4046 99.3561 97.4973 99.4215C97.6535 99.5345 97.7631 99.5843 97.7598 99.5943Z" fill="#263238"/>
<path d="M97.6767 99.5745C97.6712 99.4963 97.6936 99.4186 97.7398 99.3552C97.7844 99.284 97.8447 99.2238 97.9159 99.1792C97.9612 99.1483 98.0134 99.1291 98.0679 99.1233C98.1224 99.1175 98.1775 99.1253 98.2282 99.1459C98.2543 99.1663 98.2716 99.1959 98.2766 99.2287C98.2815 99.2614 98.2737 99.2948 98.2548 99.322C98.227 99.3655 98.1895 99.4019 98.1452 99.4283C98.0775 99.4757 98.0037 99.5137 97.9259 99.5413C97.8561 99.5726 97.7796 99.5863 97.7033 99.5812C97.7033 99.5812 97.7864 99.5546 97.9093 99.5014C97.9815 99.4701 98.0496 99.43 98.1119 99.3818C98.1817 99.3386 98.2615 99.2423 98.195 99.1958C98.1286 99.1493 98.0156 99.1958 97.9458 99.229C97.8786 99.2664 97.8197 99.3173 97.7731 99.3785C97.7372 99.4419 97.705 99.5074 97.6767 99.5745Z" fill="#263238"/>
<path d="M102.724 101.551C102.724 101.551 102.601 101.478 102.391 101.408C102.11 101.316 101.809 101.302 101.521 101.369C101.234 101.442 100.973 101.592 100.763 101.8C100.604 101.963 100.537 102.089 100.527 102.086C100.536 102.053 100.55 102.021 100.571 101.993C100.616 101.913 100.671 101.838 100.733 101.771C100.94 101.543 101.21 101.383 101.508 101.309C101.806 101.238 102.118 101.259 102.405 101.369C102.49 101.4 102.573 101.44 102.65 101.488C102.7 101.525 102.727 101.548 102.724 101.551Z" fill="#263238"/>
<path d="M103.132 99.4481C103.022 99.7717 102.891 100.088 102.74 100.395C102.608 100.712 102.457 101.022 102.288 101.322C102.402 100.998 102.534 100.681 102.684 100.372C102.816 100.056 102.965 99.7473 103.132 99.4481Z" fill="#263238"/>
<path d="M100.135 101.415C99.8962 101.362 99.6642 101.281 99.4443 101.173C99.2177 101.078 99.0035 100.957 98.8064 100.81C98.8064 100.794 99.1021 100.95 99.4709 101.116C99.8396 101.282 100.142 101.385 100.135 101.415Z" fill="#263238"/>
<path d="M101.039 101.814C101.039 101.814 100.986 101.863 100.923 101.917C100.86 101.97 100.816 102.023 100.803 102.016C100.79 102.01 100.803 101.933 100.883 101.87C100.963 101.807 101.039 101.797 101.039 101.814Z" fill="#263238"/>
<path d="M101.554 101.551C101.554 101.551 101.508 101.601 101.441 101.628C101.375 101.654 101.312 101.661 101.305 101.644C101.298 101.628 101.351 101.594 101.418 101.571C101.484 101.548 101.547 101.535 101.554 101.551Z" fill="#263238"/>
<path d="M102.122 101.584C102.122 101.584 102.052 101.568 101.973 101.561C101.893 101.554 101.833 101.561 101.826 101.561C101.82 101.561 101.886 101.501 101.979 101.511C102.072 101.521 102.132 101.571 102.122 101.584Z" fill="#263238"/>
<path d="M102.504 101.654C102.504 101.654 102.468 101.681 102.421 101.678C102.375 101.674 102.341 101.658 102.345 101.641C102.348 101.624 102.381 101.614 102.428 101.618C102.474 101.621 102.504 101.638 102.504 101.654Z" fill="#263238"/>
<path d="M136.312 100.983L135.183 98.5645L139.698 96.4315L141.389 99.9499L141.116 100.103C139.904 100.767 134.904 103.375 133.95 103.518C132.887 103.668 136.312 100.983 136.312 100.983Z" fill="#1C1C1C"/>
<g opacity="0.3">
<path d="M139.734 100.681C139.618 100.268 139.661 99.8274 139.854 99.4448C140.039 99.0665 140.359 98.7712 140.751 98.6176L141.352 99.8767L139.734 100.681Z" fill="white"/>
</g>
<g opacity="0.3">
<path d="M134.671 102.362C134.671 102.362 133.512 103.389 133.784 103.531C134.057 103.674 139.21 101.206 141.389 99.94L141.332 99.8436L135.352 102.754C135.352 102.754 134.927 102.249 134.671 102.362Z" fill="white"/>
</g>
<path d="M141.402 99.807L141.329 99.8502L141.113 99.9698L140.309 100.395C139.628 100.751 138.681 101.229 137.621 101.724C136.561 102.219 135.598 102.661 134.894 102.967L134.056 103.325L133.827 103.418L133.747 103.445L133.824 103.405L134.046 103.302L134.877 102.93C135.575 102.614 136.538 102.173 137.598 101.668C138.658 101.163 139.591 100.694 140.289 100.339L141.1 99.9299L141.322 99.8203C141.348 99.8129 141.375 99.8084 141.402 99.807Z" fill="#263238"/>
<path d="M135.382 102.824C135.284 102.701 135.172 102.59 135.05 102.492C134.914 102.415 134.77 102.354 134.621 102.309C134.785 102.306 134.946 102.353 135.083 102.442C135.22 102.531 135.328 102.66 135.392 102.81L135.382 102.824Z" fill="#263238"/>
<path d="M136.392 101.515C136.392 101.515 136.283 101.482 136.166 101.409C136.05 101.335 135.964 101.266 135.974 101.252C135.984 101.239 136.083 101.286 136.199 101.359C136.316 101.432 136.399 101.502 136.392 101.515Z" fill="#263238"/>
<path d="M136.665 101.146C136.665 101.162 136.565 101.146 136.455 101.116C136.346 101.086 136.259 101.043 136.263 101.026C136.334 101.02 136.406 101.031 136.472 101.059C136.588 101.083 136.668 101.129 136.665 101.146Z" fill="#263238"/>
<path d="M136.694 100.611C136.694 100.628 136.601 100.691 136.472 100.754C136.342 100.817 136.233 100.857 136.223 100.84C136.286 100.777 136.362 100.729 136.445 100.697C136.588 100.634 136.684 100.594 136.694 100.611Z" fill="#263238"/>
<path d="M136.628 100.272C136.628 100.272 136.552 100.392 136.402 100.475C136.316 100.533 136.216 100.565 136.113 100.568C136.286 100.472 136.458 100.373 136.628 100.272Z" fill="#263238"/>
<path d="M136.05 101.192C135.963 101.255 135.865 101.302 135.761 101.329C135.653 101.366 135.542 101.393 135.429 101.408C135.358 101.417 135.287 101.417 135.216 101.408C135.194 101.407 135.173 101.402 135.154 101.392C135.134 101.382 135.117 101.369 135.103 101.352C135.09 101.332 135.083 101.308 135.083 101.284C135.083 101.26 135.09 101.236 135.103 101.216C135.188 101.109 135.308 101.035 135.442 101.006C135.576 100.978 135.716 100.997 135.837 101.06C135.909 101.097 135.972 101.148 136.023 101.209C136.043 101.23 136.058 101.255 136.067 101.282C135.995 101.207 135.91 101.146 135.817 101.099C135.714 101.051 135.598 101.036 135.485 101.056C135.42 101.064 135.357 101.084 135.3 101.116C135.243 101.148 135.193 101.191 135.153 101.242C135.123 101.299 135.153 101.345 135.233 101.352C135.298 101.359 135.363 101.359 135.429 101.352C135.541 101.34 135.652 101.319 135.761 101.289C135.924 101.236 136.047 101.186 136.05 101.192Z" fill="#263238"/>
<path d="M135.983 101.242C135.983 101.242 135.9 101.196 135.854 101.056C135.826 100.976 135.819 100.891 135.83 100.807C135.835 100.752 135.854 100.7 135.884 100.654C135.914 100.608 135.955 100.57 136.003 100.544C136.036 100.537 136.07 100.543 136.098 100.56C136.127 100.578 136.147 100.605 136.156 100.637C136.167 100.688 136.167 100.74 136.156 100.79C136.148 100.872 136.129 100.953 136.1 101.029C136.053 101.162 135.997 101.232 135.99 101.225C135.983 101.219 136.023 101.146 136.06 101.016C136.081 100.941 136.095 100.865 136.1 100.787C136.1 100.704 136.083 100.581 136.007 100.604C135.93 100.627 135.89 100.74 135.874 100.817C135.857 100.892 135.857 100.971 135.874 101.046C135.902 101.116 135.939 101.181 135.983 101.242Z" fill="#263238"/>
<path d="M140.721 98.6144C140.721 98.6144 140.588 98.6642 140.389 98.7872C140.14 98.9404 139.94 99.1603 139.811 99.4217C139.683 99.6883 139.631 99.9849 139.661 100.279C139.684 100.508 139.738 100.641 139.728 100.644C139.708 100.616 139.694 100.584 139.684 100.551C139.652 100.466 139.63 100.376 139.618 100.286C139.575 99.9818 139.622 99.672 139.754 99.3952C139.888 99.116 140.103 98.8842 140.372 98.7307C140.452 98.6838 140.537 98.6459 140.625 98.6177C140.656 98.6114 140.689 98.6102 140.721 98.6144Z" fill="#263238"/>
<path d="M139.362 96.9598C139.538 97.253 139.698 97.5558 139.841 97.8668C140.001 98.1706 140.143 98.4834 140.266 98.8037C140.089 98.5096 139.93 98.2057 139.787 97.8934C139.626 97.5918 139.483 97.28 139.362 96.9598Z" fill="#263238"/>
<path d="M138.957 100.511C138.765 100.664 138.554 100.792 138.329 100.89C138.113 101.007 137.883 101.096 137.645 101.153C137.645 101.153 137.94 101.013 138.309 100.837C138.678 100.661 138.947 100.498 138.957 100.511Z" fill="#263238"/>
<path d="M139.841 100.086C139.841 100.086 139.841 100.162 139.841 100.242C139.841 100.322 139.857 100.392 139.841 100.398C139.824 100.405 139.781 100.339 139.781 100.246C139.781 100.153 139.824 100.086 139.841 100.086Z" fill="#263238"/>
<path d="M139.977 99.518C139.993 99.518 139.977 99.5845 139.96 99.6542C139.944 99.724 139.904 99.7738 139.89 99.7705C139.877 99.7672 139.89 99.7041 139.89 99.6343C139.89 99.5645 139.96 99.5114 139.977 99.518Z" fill="#263238"/>
<path d="M140.362 99.0895C140.362 99.1061 140.306 99.136 140.253 99.1892C140.199 99.2423 140.166 99.3022 140.15 99.2988C140.133 99.2955 140.15 99.2125 140.209 99.146C140.269 99.0796 140.362 99.0895 140.362 99.0895Z" fill="#263238"/>
<path d="M140.662 98.8502C140.662 98.8502 140.662 98.897 140.629 98.9305C140.595 98.9639 140.562 98.9773 140.548 98.9673C140.535 98.9572 140.548 98.9204 140.582 98.887C140.615 98.8535 140.649 98.8368 140.662 98.8502Z" fill="#263238"/>
<path d="M141.592 97.6209L134.283 101.02L121.139 77.6204C119.428 71.4475 117.777 49.7128 117.777 49.7128L127.286 50.437C127.286 50.437 128.751 66.052 131.047 74.0788L141.592 97.6209Z" fill="#263238"/>
<path d="M133.113 98.7306C133.113 98.7306 133.206 98.6609 133.388 98.5645C133.571 98.4682 133.84 98.332 134.172 98.1692C134.837 97.8369 135.764 97.4017 136.79 96.9233C137.817 96.4449 138.747 96.0229 139.425 95.7272C139.757 95.5777 140.043 95.4581 140.232 95.395C140.329 95.3459 140.432 95.3101 140.538 95.2887C140.455 95.357 140.362 95.4129 140.262 95.4548C140.076 95.5512 139.811 95.6874 139.478 95.8502C138.814 96.1824 137.887 96.6176 136.864 97.096C135.84 97.5745 134.907 97.9931 134.226 98.2921C133.893 98.4416 133.611 98.5612 133.418 98.6243C133.322 98.674 133.219 98.7098 133.113 98.7306Z" fill="#455A64"/>
<path d="M131.605 40.965C131.784 40.965 133.728 46.7226 131.857 50.5399C131.668 50.922 130.196 53.0251 130.196 53.0251C125.02 59.1315 119.777 70.9657 118.315 74.0854C115.325 80.4676 104.242 101.461 104.242 101.461L97.1321 97.3916L107.528 70.6634L116.963 46.5432L131.605 40.965Z" fill="#263238"/>
<path d="M118.787 65.66C118.787 65.66 118.285 68.0887 118.026 67.9491C117.285 67.5471 112.192 65.6501 112.192 65.6501L113.567 64.1251L118.787 65.66Z" fill="#455A64"/>
<path d="M117.285 67.547C117.285 67.547 116.332 71.4641 115.106 71.2514C113.88 71.0388 111.318 69.7497 111.318 69.7497L112.863 65.8859L117.285 67.547Z" fill="#455A64"/>
<path d="M118.026 67.9491L112.342 65.6766L112.614 66.5105L117.116 68.1584L118.026 67.9491Z" fill="#263238"/>
<path d="M127.894 56.0983C127.87 56.1511 127.838 56.2003 127.801 56.2445L127.508 56.6398C127.256 56.972 126.897 57.4903 126.482 58.1315C125.648 59.414 124.598 61.2479 123.525 63.321C122.452 65.3942 121.531 67.3078 120.884 68.6833L120.103 70.3212L119.887 70.7631C119.864 70.8161 119.835 70.8663 119.8 70.9126C119.811 70.8562 119.829 70.8015 119.854 70.7498L120.043 70.2946C120.209 69.8993 120.458 69.3311 120.771 68.6334C121.402 67.2381 122.292 65.3111 123.372 63.2413C124.271 61.4614 125.269 59.7333 126.362 58.0651C126.794 57.4305 127.166 56.9322 127.438 56.5999C127.565 56.4471 127.671 56.3242 127.771 56.2245C127.806 56.1774 127.847 56.135 127.894 56.0983Z" fill="#455A64"/>
<path d="M97.6735 96.1458C97.6935 96.106 99.3712 96.9033 101.421 97.9299C103.471 98.9565 105.112 99.827 105.076 99.8702C105.039 99.9134 103.378 99.1127 101.328 98.0861C99.2782 97.0595 97.6536 96.189 97.6735 96.1458Z" fill="#455A64"/>
<path d="M106.122 27.204C105.737 28.0742 105.3 28.9207 104.813 29.7389C104.378 30.5859 103.889 31.4048 103.351 32.1908C103.738 31.3198 104.175 30.4723 104.66 29.6525C105.099 28.808 105.587 27.9904 106.122 27.204Z" fill="#263238"/>
<path d="M119.554 17.094C119.943 17.094 120.405 19.918 120.797 24.9912C121.242 30.7455 121.202 36.5529 119.611 40.2042C119.464 40.594 119.242 40.9511 118.957 41.255C118.672 41.5588 118.329 41.8035 117.95 41.975C113.83 43.676 102.464 31.4897 102.464 31.4897L105.262 26.5826L113.265 33.0445C113.265 33.0445 114.063 26.5062 113.91 23.4928C113.787 21.2071 116.069 17.1206 119.554 17.094Z" fill="#455A64"/>
<path d="M123.096 17.1505C123.096 17.1505 130.046 18.1671 131.844 20.8981C133.641 23.629 132.731 47.716 132.731 47.716L114.863 48.7725C114.863 48.7725 116.305 18.1139 117.189 17.7651C119.408 16.8946 122.83 17.0641 123.096 17.1505Z" fill="#455A64"/>
<path d="M94.4906 10.8082C94.4386 10.0773 94.5747 9.34524 94.886 8.68189C95.0238 8.39809 95.0965 8.08706 95.0986 7.77156V6.96424H84.6831C84.2593 6.96424 83.8528 7.1326 83.5531 7.43229C83.2534 7.73198 83.085 8.13845 83.085 8.56228V18.9346H82.3807C82.0553 18.9315 81.7349 18.8543 81.4438 18.7087C80.791 18.3944 80.0696 18.2493 79.346 18.2869C78.6224 18.3245 77.9199 18.5435 77.3031 18.9238C76.6864 19.3041 76.1752 19.8334 75.8167 20.4631C75.4582 21.0927 75.2639 21.8025 75.2516 22.5269C75.2393 23.2514 75.4095 23.9673 75.7465 24.6088C76.0835 25.2502 76.5764 25.7966 77.1799 26.1975C77.7834 26.5985 78.4781 26.8412 79.2 26.9033C79.9219 26.9653 80.6478 26.8448 81.3109 26.5527C81.5854 26.4278 81.8831 26.3622 82.1847 26.36H83.0983V36.4732C83.0979 36.6834 83.1389 36.8915 83.219 37.0858C83.2991 37.2801 83.4168 37.4566 83.5652 37.6054C83.7137 37.7541 83.89 37.8721 84.0841 37.9527C84.2782 38.0332 84.4862 38.0746 84.6964 38.0746H112.833C113.179 38.0746 113.51 37.9374 113.754 37.6932C113.998 37.4489 114.136 37.1177 114.136 36.7723V8.26659C114.136 8.09544 114.103 7.92589 114.037 7.76769C113.972 7.60948 113.876 7.46573 113.755 7.34471C113.634 7.22369 113.49 7.12777 113.332 7.06248C113.174 6.99718 113.004 6.9638 112.833 6.96424H102.667V8.11708C102.666 8.38379 102.718 8.64805 102.82 8.89452C103.058 9.4741 103.167 10.0985 103.139 10.7244C103.112 11.3503 102.948 11.9628 102.66 12.5192C102.373 13.0757 101.967 13.5629 101.472 13.947C100.977 14.331 100.404 14.6028 99.794 14.7435C99.1835 14.8842 98.5496 14.8903 97.9365 14.7615C97.3234 14.6328 96.7456 14.3721 96.2432 13.9977C95.7409 13.6233 95.326 13.1441 95.0274 12.5934C94.7288 12.0426 94.5536 11.4334 94.5139 10.8082H94.4906Z" fill="#1C1C1C"/>
<path d="M116.076 22.2736C116.087 22.3395 116.092 22.4061 116.093 22.4729C116.093 22.6257 116.093 22.8051 116.093 23.0477C116.093 23.5693 116.093 24.2869 116.119 25.1607C116.119 26.9448 116.149 29.4099 116.093 32.1376C116.036 34.8652 115.887 37.3271 115.704 39.1145C115.611 40.0049 115.521 40.7192 115.448 41.2142C115.412 41.4468 115.382 41.6328 115.355 41.7823C115.35 41.8494 115.336 41.9155 115.312 41.9784C115.308 41.912 115.308 41.8454 115.312 41.779C115.329 41.6295 115.345 41.4468 115.372 41.2076C115.422 40.7092 115.495 39.9916 115.571 39.1045C115.724 37.3271 115.86 34.8685 115.903 32.1476C115.947 29.4266 115.957 26.9647 115.98 25.1706C115.98 24.2969 116.003 23.5792 116.01 23.0576C116.01 22.8251 116.01 22.6324 116.026 22.4829C116.033 22.4112 116.05 22.3408 116.076 22.2736Z" fill="#263238"/>
<path d="M126.704 5.79492C126.418 7.60892 126.435 9.20032 127.322 10.3831C127.515 10.6106 127.692 10.8503 127.854 11.1007C127.934 11.2267 127.987 11.3678 128.011 11.5152C128.034 11.6626 128.027 11.8133 127.99 11.9579C127.949 12.0861 127.874 12.2011 127.774 12.2909C127.674 12.3807 127.551 12.4422 127.419 12.4689C127.287 12.4957 127.15 12.4867 127.023 12.443C126.895 12.3993 126.782 12.3225 126.694 12.2203C126.723 12.4255 126.69 12.6346 126.6 12.821C126.509 13.0074 126.365 13.1626 126.186 13.2669C126.094 13.309 125.994 13.3297 125.894 13.3275C125.793 13.3253 125.694 13.3002 125.604 13.2541C125.515 13.208 125.437 13.1421 125.376 13.0615C125.316 12.9808 125.275 12.8874 125.256 12.7884C125.256 12.7884 125.492 13.7087 124.435 13.5659L125.179 7.25343L126.704 5.79492Z" fill="#263238"/>
<path d="M121.97 19.7485C121.557 19.7485 121.15 19.6618 120.773 19.4941C120.397 19.3263 120.06 19.0813 119.784 18.7749C119.509 18.4686 119.3 18.1076 119.173 17.7156C119.046 17.3236 119.003 16.9092 119.046 16.4993C119.142 15.5557 119.229 14.7883 119.229 14.7883C119.229 14.7883 116.903 14.4261 116.873 12.1005C116.843 9.77487 117.249 4.43587 117.249 4.43587C118.571 3.86841 120.02 3.66407 121.448 3.84395C122.875 4.02384 124.228 4.58142 125.368 5.45915L125.701 5.72162L124.893 17.0176C124.84 17.7577 124.51 18.4505 123.968 18.957C123.425 19.4635 122.712 19.7462 121.97 19.7485Z" fill="#FFBE9D"/>
<path d="M117.847 8.63538C117.895 8.59088 117.928 8.53325 117.943 8.4697C117.959 8.40616 117.955 8.33951 117.933 8.27812C117.91 8.21672 117.87 8.1633 117.817 8.12454C117.765 8.08578 117.702 8.06341 117.637 8.06021C117.571 8.05702 117.507 8.07314 117.45 8.10658C117.394 8.14001 117.349 8.18927 117.321 8.24818C117.293 8.3071 117.282 8.37305 117.291 8.43778C117.3 8.50252 117.328 8.56316 117.372 8.61212C117.401 8.64533 117.437 8.67232 117.477 8.69152C117.517 8.71071 117.56 8.72172 117.604 8.72388C117.648 8.72605 117.693 8.71934 117.734 8.70414C117.776 8.68894 117.814 8.66556 117.847 8.63538Z" fill="#263238"/>
<path d="M117.202 7.90111C117.239 7.94098 117.468 7.7649 117.787 7.7649C118.106 7.7649 118.342 7.92769 118.375 7.88783C118.408 7.84796 118.358 7.79812 118.256 7.71838C118.119 7.61992 117.955 7.56859 117.787 7.5722C117.619 7.57218 117.455 7.6257 117.319 7.72503C117.219 7.81141 117.186 7.8845 117.202 7.90111Z" fill="#263238"/>
<path d="M120.893 8.38958C120.855 8.41211 120.822 8.44204 120.796 8.4776C120.769 8.51317 120.75 8.55366 120.74 8.59669C120.729 8.63972 120.727 8.68441 120.734 8.72815C120.741 8.77189 120.757 8.81379 120.78 8.85138C120.803 8.88998 120.833 8.92363 120.869 8.95033C120.905 8.97703 120.946 8.99623 120.989 9.00678C121.032 9.01732 121.077 9.019 121.122 9.01171C121.166 9.00442 121.208 8.98831 121.246 8.96434C121.284 8.94154 121.317 8.91126 121.344 8.8753C121.37 8.83934 121.389 8.79844 121.399 8.75504C121.409 8.71164 121.411 8.66662 121.403 8.62267C121.396 8.57872 121.379 8.53673 121.355 8.49921C121.332 8.46135 121.302 8.42841 121.267 8.40234C121.231 8.37626 121.19 8.35757 121.147 8.34736C121.104 8.33715 121.06 8.33563 121.016 8.34288C120.972 8.35013 120.931 8.366 120.893 8.38958Z" fill="#263238"/>
<path d="M120.681 8.18351C120.717 8.22338 120.946 8.04729 121.265 8.04729C121.584 8.04729 121.82 8.21009 121.853 8.17022C121.887 8.13035 121.833 8.08052 121.734 8.00078C121.597 7.90185 121.431 7.8505 121.262 7.8546C121.094 7.85481 120.93 7.91089 120.797 8.01407C120.697 8.0938 120.664 8.1669 120.681 8.18351Z" fill="#263238"/>
<path d="M119.398 10.8249C119.232 10.7615 119.057 10.7245 118.88 10.7152C118.797 10.7152 118.731 10.6887 118.724 10.6421C118.72 10.5583 118.741 10.4752 118.784 10.4029L119.036 9.73847C119.277 9.18855 119.461 8.61517 119.584 8.02747C119.29 8.55571 119.05 9.11224 118.867 9.68864C118.784 9.91455 118.704 10.1305 118.628 10.3531C118.572 10.4604 118.555 10.5838 118.581 10.7019C118.593 10.7338 118.612 10.7624 118.637 10.7854C118.661 10.8085 118.691 10.8255 118.724 10.8348C118.771 10.8469 118.819 10.8536 118.867 10.8548C119.044 10.8754 119.224 10.8653 119.398 10.8249Z" fill="#263238"/>
<path d="M120.438 11.1802C120.771 10.9809 119.518 11.6686 118.867 11.6354C118.975 11.8035 119.137 11.9298 119.327 11.9938C119.516 12.0578 119.722 12.0556 119.91 11.9876C120.608 11.7318 120.438 11.1802 120.438 11.1802Z" fill="white"/>
<path d="M119.209 14.7552C120.282 14.7751 121.337 14.4743 122.239 13.8914C122.239 13.8914 121.521 15.5525 119.202 15.3565L119.209 14.7552Z" fill="#EB996E"/>
<path d="M125.701 7.97429C125.751 7.95767 127.435 7.84139 127.156 9.80157C126.877 11.7618 124.99 10.8315 124.993 10.775C124.996 10.7185 125.701 7.97429 125.701 7.97429Z" fill="#FFBE9D"/>
<path d="M125.691 10.1736C125.691 10.1736 125.72 10.2035 125.777 10.2367C125.814 10.2603 125.855 10.2762 125.899 10.2836C125.942 10.2911 125.987 10.2898 126.029 10.2799C126.168 10.2174 126.287 10.1191 126.374 9.99534C126.462 9.87155 126.515 9.72668 126.528 9.5756C126.559 9.40883 126.551 9.23709 126.505 9.07392C126.495 9.01014 126.47 8.94967 126.431 8.89763C126.393 8.84558 126.343 8.80349 126.285 8.77491C126.247 8.75822 126.205 8.75574 126.165 8.76794C126.125 8.78014 126.091 8.8062 126.069 8.84136C126.036 8.89119 126.043 8.93106 126.029 8.93438C126.016 8.93771 125.993 8.89451 126.029 8.8181C126.046 8.76978 126.081 8.72951 126.126 8.70514C126.155 8.68793 126.188 8.67698 126.221 8.67298C126.255 8.66897 126.289 8.67201 126.322 8.68189C126.4 8.71259 126.468 8.76305 126.521 8.8283C126.573 8.89355 126.608 8.97133 126.621 9.05399C126.681 9.23476 126.695 9.42795 126.661 9.61546C126.646 9.79164 126.58 9.95953 126.47 10.0979C126.36 10.2363 126.211 10.3389 126.043 10.3929C125.988 10.4004 125.932 10.3956 125.879 10.379C125.826 10.3623 125.778 10.3342 125.737 10.2965C125.687 10.2201 125.684 10.1769 125.691 10.1736Z" fill="#EB996E"/>
<path d="M116.624 4.21336C116.658 4.01591 116.769 3.8398 116.932 3.72297C117.094 3.60614 117.297 3.55794 117.495 3.58877C117.361 3.5773 117.232 3.53518 117.117 3.46569C117.002 3.39619 116.905 3.30118 116.833 3.18803C116.76 3.07488 116.715 2.94662 116.701 2.81322C116.686 2.67981 116.702 2.54483 116.748 2.41875C116.794 2.29267 116.869 2.17888 116.966 2.08621C117.063 1.99353 117.18 1.92446 117.308 1.88435C117.436 1.84424 117.572 1.83417 117.704 1.85492C117.837 1.87567 117.963 1.92669 118.073 2.00401C117.811 1.75809 117.603 1.46058 117.461 1.13023C117.39 0.961325 117.374 0.774351 117.414 0.595579C117.455 0.416806 117.55 0.255222 117.687 0.13353C117.839 0.0460514 118.011 0 118.186 0C118.361 0 118.533 0.0460514 118.684 0.13353C119.162 0.376061 119.525 0.814614 120.013 1.0206C120.501 1.22658 121.076 1.17675 121.618 1.23323C122.22 1.28233 122.791 1.52074 123.249 1.9143C123.477 2.11059 123.656 2.35775 123.772 2.63588C123.887 2.91402 123.936 3.21537 123.913 3.51567C124.648 3.47248 125.452 3.51567 126.02 3.97083C125.977 3.67486 126.013 3.37277 126.125 3.09547C126.237 2.81818 126.421 2.57566 126.658 2.39272C126.959 2.18284 127.31 2.05372 127.676 2.01767C128.042 1.98161 128.411 2.03982 128.747 2.18674C128.907 2.24121 129.054 2.32844 129.178 2.44286C129.302 2.55728 129.401 2.69637 129.468 2.85121C129.618 3.29972 129.336 3.78146 128.98 4.09376C128.647 4.37603 128.253 4.57629 127.829 4.67842C127.405 4.78056 126.963 4.78172 126.538 4.68181C126.673 5.02847 126.729 5.40051 126.704 5.77154C126.668 6.41275 126.153 7.07722 125.927 7.67856L125.877 8.07392L125.492 9.71848L124.462 9.63542L124.744 6.18019C124.744 6.18019 124.937 4.72833 123.674 4.77816C122.412 4.828 120.621 6.14032 118.202 5.632C117.806 5.58474 117.424 5.44968 117.086 5.23664C116.927 5.12113 116.8 4.96593 116.719 4.78644C116.638 4.60694 116.605 4.40938 116.624 4.21336Z" fill="#263238"/>
<path d="M130.169 5.73173C129.975 5.88064 129.747 5.97883 129.505 6.01745C128.918 6.15093 128.302 6.07894 127.762 5.8135C127.221 5.54806 126.788 5.10524 126.535 4.55895C126.416 4.34316 126.353 4.10099 126.352 3.85461C126.382 3.85461 126.435 4.12372 126.644 4.51908C126.912 5.01863 127.33 5.4216 127.839 5.67131C128.348 5.92102 128.923 6.00489 129.482 5.91114C129.907 5.82476 130.156 5.69851 130.169 5.73173Z" fill="#263238"/>
<path d="M127.701 7.64531C127.674 7.64531 127.701 7.43933 127.641 7.13367C127.546 6.73436 127.383 6.35443 127.159 6.01072C126.924 5.65976 126.714 5.29348 126.528 4.91435C126.441 4.7576 126.396 4.58169 126.395 4.40271C126.488 4.54884 126.569 4.70216 126.637 4.86119C126.787 5.14027 127.043 5.49908 127.302 5.92102C127.54 6.28033 127.697 6.68745 127.76 7.11374C127.799 7.2927 127.778 7.47943 127.701 7.64531Z" fill="#263238"/>
<path d="M110.488 26.8618C109.331 26.1584 108.214 25.392 107.142 24.566C105.856 23.4796 105.949 23.36 106.099 23.2371C106.498 22.8816 108.425 25.0644 108.282 24.3468C108.139 23.6291 105.624 21.9613 106.049 21.6092C106.614 21.1474 108.594 23.4697 108.777 23.6524C108.959 23.8351 109.225 23.5727 109.052 23.4165C108.803 23.1906 106.252 20.7586 106.8 20.3002C107.106 20.0443 107.498 20.649 107.498 20.649C107.498 20.649 109.724 23.1109 109.976 22.8849C110.229 22.659 108.979 21.1673 108.514 20.6955C108.049 20.2237 108.092 19.8217 108.461 19.7852C108.71 19.7619 110.149 21.1706 110.594 21.6457C111.039 22.1208 112.229 23.4531 112.162 22.3102C112.096 21.1673 112.461 20.257 112.727 20.0809C112.993 19.9048 113.328 20.2237 113.202 20.556C113.101 20.9306 113.052 21.3174 113.056 21.7055C113.046 22.0172 113.089 22.3282 113.182 22.6258C113.262 22.8816 113.342 23.1075 113.418 23.3069L114.199 25.4564L112.239 27.9382L110.488 26.8618Z" fill="#FFBE9D"/>
<path d="M129.827 19.4729C130.239 19.5759 132.691 20.8451 132.731 26.4033C132.761 30.8221 132.422 40.6296 129.409 42.0881C128.043 42.7526 125.97 42.7526 124.169 41.5731C119.093 38.294 110.102 27.7223 110.102 27.7223L114.126 23.4365C114.126 23.4365 124.571 34.068 125.016 33.6759C125.681 33.0846 124.661 28.008 125.232 22.9913C125.624 19.4231 127.286 18.8384 129.827 19.4729Z" fill="#455A64"/>
<path d="M114.119 23.5892C114.099 23.6165 114.076 23.6411 114.049 23.6623L113.833 23.875C113.644 24.0577 113.365 24.3301 113.013 24.6956C112.01 25.731 111.088 26.8417 110.255 28.0179V27.9415C113.093 30.8353 117.232 35.0447 121.827 39.7258C122.912 40.7581 124.236 41.5057 125.681 41.902C126.361 42.0912 127.076 42.1231 127.771 41.995C128.431 41.8489 129.045 41.5393 129.555 41.0946C130.486 40.2421 131.167 39.1521 131.525 37.9417C131.843 36.8865 132.056 35.8027 132.163 34.7058C132.432 32.7124 132.575 31.0512 132.638 29.9316C132.671 29.3668 132.688 28.9349 132.701 28.6292V28.297C132.697 28.2595 132.697 28.2215 132.701 28.184C132.706 28.2226 132.706 28.2617 132.701 28.3003C132.701 28.3834 132.701 28.4963 132.701 28.6325C132.701 28.9316 132.701 29.3701 132.671 29.9382C132.628 31.0711 132.505 32.7124 132.249 34.7257C132.15 35.8321 131.942 36.926 131.628 37.9916C131.269 39.2289 130.58 40.3453 129.634 41.2209C129.105 41.6852 128.468 42.0085 127.781 42.1611C127.062 42.2945 126.322 42.2627 125.618 42.0681C124.143 41.6682 122.792 40.9078 121.684 39.8554C117.073 35.1676 112.966 30.9283 110.149 28.0279L110.112 27.9913L110.142 27.9515C110.987 26.7784 111.925 25.6752 112.946 24.6524C113.309 24.2969 113.611 24.0311 113.794 23.8517L114.02 23.6557L114.119 23.5892Z" fill="#263238"/>
<path d="M114.122 23.4364C114.122 23.4364 114.146 23.4364 114.179 23.4829L114.335 23.6391L114.93 24.2404C115.445 24.7653 116.199 25.5162 117.146 26.4365C118.093 27.3568 119.236 28.4531 120.525 29.6558L122.558 31.5396C123.272 32.1841 124.01 32.8685 124.8 33.513L124.664 33.5795C124.688 33.1875 124.711 32.7722 124.734 32.3536C124.867 30.1575 124.99 28.0644 125.103 26.1607C125.173 25.2105 125.189 24.3035 125.292 23.4563C125.369 22.6642 125.587 21.8922 125.937 21.1772C126.227 20.583 126.666 20.0746 127.212 19.7021C127.63 19.4286 128.11 19.2652 128.608 19.227C128.92 19.201 129.235 19.2395 129.531 19.34C129.636 19.3705 129.735 19.4153 129.827 19.4728C129.827 19.4728 129.724 19.4297 129.522 19.3732C129.226 19.289 128.917 19.2619 128.611 19.2934C128.129 19.3433 127.667 19.511 127.266 19.7818C126.743 20.1555 126.322 20.6548 126.043 21.2337C125.71 21.9387 125.503 22.6966 125.432 23.4729C125.339 24.3102 125.329 25.2172 125.262 26.1674L124.907 32.3602C124.884 32.7788 124.857 33.1974 124.837 33.5861V33.7556L124.707 33.6526C123.897 32.9881 123.173 32.3237 122.458 31.6592C121.744 30.9947 121.073 30.3701 120.428 29.7654C119.146 28.5528 118.01 27.4398 117.073 26.5195C116.136 25.5992 115.395 24.8185 114.893 24.2803C114.637 24.0145 114.451 23.8019 114.322 23.6557L114.179 23.4929C114.136 23.4563 114.119 23.4364 114.122 23.4364Z" fill="#263238"/>
<path d="M111.877 29.4964C112.02 29.2417 112.19 29.0033 112.385 28.7854C112.717 28.3635 113.189 27.7887 113.73 27.1675C114.272 26.5462 114.774 25.998 115.146 25.6093C115.336 25.3875 115.549 25.186 115.78 25.0079C115.621 25.253 115.439 25.4822 115.235 25.6923L113.86 27.2804L112.478 28.8652C112.298 29.0941 112.097 29.3055 111.877 29.4964Z" fill="#263238"/>
<path d="M125.708 36.0746C125.502 35.6685 125.333 35.2449 125.203 34.8088C125.015 34.3941 124.864 33.9639 124.751 33.5231C125.243 34.2979 125.569 35.1669 125.708 36.0746Z" fill="#263238"/>
<path d="M126.621 35.3671C126.23 35.1261 125.871 34.837 125.551 34.5066C125.194 34.2141 124.874 33.8794 124.598 33.5099C125.348 34.0404 126.028 34.6645 126.621 35.3671Z" fill="#263238"/>
<path d="M27.1106 84.8599L16.4393 94.4914L13.5156 90.7504L22.868 79.1654L27.1106 84.8599Z" fill="#FFBE9D"/>
<path d="M16.685 94.8532L17.0505 94.521L13.6816 90.3846L12.1633 91.7136L12.366 91.9727C13.273 93.1256 17.0638 97.7702 17.9342 98.3084C18.9044 98.9064 16.685 94.8532 16.685 94.8532Z" fill="#1C1C1C"/>
<g opacity="0.5">
<path d="M13.4689 93.1291C13.7533 92.7746 13.8955 92.3268 13.8676 91.8732C13.8475 91.4247 13.6574 91.0006 13.336 90.6871L12.223 91.6838L13.4689 93.1291Z" fill="white"/>
</g>
<path opacity="0.5" d="M17.7116 96.8867C17.7116 96.8867 18.416 98.3751 18.0871 98.3984C17.7581 98.4216 13.768 93.8734 12.1633 91.7138L12.2597 91.6407L16.8877 96.9864C16.8877 96.9864 17.4957 96.6641 17.7116 96.8867Z" fill="white"/>
<path d="M12.2064 91.5775C12.2214 91.6037 12.2393 91.6282 12.2596 91.6506L12.4191 91.8599L13.027 92.6108C13.542 93.242 14.2696 94.1025 15.0902 95.0361C15.9108 95.9696 16.675 96.8002 17.2364 97.3949L17.9009 98.0926L18.0836 98.2787C18.1046 98.3021 18.128 98.3233 18.1534 98.3418L18.0936 98.2687L17.9175 98.076C17.7414 97.88 17.5222 97.6441 17.2531 97.365C16.7015 96.7637 15.9441 95.9298 15.1234 94.9962C14.3028 94.0626 13.5719 93.2055 13.0437 92.5809L12.4224 91.8433L12.2529 91.644C12.2399 91.6202 12.2243 91.5979 12.2064 91.5775Z" fill="#263238"/>
<path d="M16.8245 97.0395C16.9721 96.9643 17.1282 96.9075 17.2896 96.8701C17.4541 96.8513 17.6201 96.8513 17.7846 96.8701C17.6305 96.7857 17.4504 96.762 17.2796 96.8036C17.104 96.8235 16.942 96.9075 16.8245 97.0395Z" fill="#263238"/>
<path d="M16.386 95.3385C16.4723 95.359 16.5622 95.359 16.6485 95.3385C16.7913 95.3186 16.9043 95.2853 16.9009 95.2654C16.7251 95.2506 16.5483 95.2791 16.386 95.3485V95.3385Z" fill="#263238"/>
<path d="M16.2729 94.8667C16.2729 94.8667 16.366 94.9099 16.4889 94.9232C16.6118 94.9365 16.7115 94.9232 16.7148 94.9232C16.7181 94.9232 16.6185 94.88 16.4955 94.8667C16.3726 94.8534 16.2729 94.8468 16.2729 94.8667Z" fill="#263238"/>
<path d="M16.469 94.3318C16.469 94.3318 16.5255 94.4448 16.6251 94.561C16.7248 94.6773 16.8178 94.7637 16.8311 94.7504C16.8444 94.7371 16.7746 94.6375 16.6717 94.5212C16.5687 94.4049 16.4823 94.3185 16.469 94.3318Z" fill="#263238"/>
<path d="M16.6716 94.026C16.685 94.1354 16.7327 94.2378 16.8078 94.3184C16.9175 94.4612 17.0404 94.5443 17.0504 94.531C17.0603 94.5177 16.9607 94.418 16.861 94.2785C16.8047 94.1895 16.7413 94.105 16.6716 94.026Z" fill="#263238"/>
<path d="M16.851 95.1689C16.912 95.2659 16.9896 95.3514 17.0802 95.4214C17.1721 95.5047 17.2723 95.5782 17.3793 95.6407C17.4415 95.6838 17.5098 95.7173 17.5819 95.7404C17.6247 95.7568 17.672 95.7568 17.7148 95.7404C17.7379 95.7281 17.7569 95.7092 17.7693 95.6861C17.7817 95.6631 17.787 95.6369 17.7846 95.6108C17.7588 95.5213 17.7137 95.4386 17.6523 95.3685C17.591 95.2983 17.515 95.2426 17.4297 95.2052C17.3444 95.1678 17.2519 95.1496 17.1588 95.1519C17.0656 95.1543 16.9742 95.1771 16.8909 95.2188C16.8618 95.2322 16.8358 95.2514 16.8145 95.2753C16.9193 95.2287 17.0321 95.2028 17.1467 95.1988C17.264 95.1975 17.3793 95.2298 17.4789 95.2919C17.5404 95.3276 17.5939 95.3755 17.6362 95.4326C17.6784 95.4897 17.7086 95.5549 17.7248 95.6241C17.7248 95.6906 17.6716 95.7171 17.6052 95.6972C17.5396 95.6727 17.4763 95.6427 17.4158 95.6075C17.3102 95.5474 17.2092 95.4796 17.1135 95.4048C16.944 95.2586 16.861 95.159 16.851 95.1689Z" fill="#263238"/>
<path d="M16.8973 95.2452C16.9782 95.2297 17.0504 95.1847 17.1 95.119C17.1608 95.0519 17.2042 94.9709 17.2263 94.8831C17.2473 94.8277 17.2532 94.7677 17.2433 94.7093C17.2333 94.6509 17.208 94.5962 17.1698 94.5509C17.1408 94.5304 17.105 94.5217 17.0698 94.5266C17.0346 94.5316 17.0027 94.5497 16.9804 94.5775C16.9454 94.6193 16.9194 94.668 16.904 94.7203C16.8774 94.8043 16.8617 94.8914 16.8575 94.9795C16.8449 95.0588 16.8529 95.14 16.8807 95.2153C16.893 95.1384 16.8996 95.0607 16.9007 94.9828C16.9135 94.9003 16.9335 94.8192 16.9605 94.7403C16.9837 94.6572 17.0601 94.5476 17.1299 94.6007C17.1547 94.6398 17.1711 94.6836 17.1779 94.7294C17.1848 94.7752 17.182 94.8219 17.1698 94.8665C17.1518 94.9462 17.1167 95.0211 17.0668 95.0858C17.0149 95.1436 16.9582 95.1969 16.8973 95.2452Z" fill="#263238"/>
<path d="M13.3658 90.697C13.3658 90.697 13.4788 90.8 13.615 90.9993C13.7948 91.2582 13.8994 91.5618 13.9174 91.8764C13.929 92.1902 13.8555 92.5013 13.7047 92.7768C13.5851 92.9861 13.4755 93.109 13.4854 93.109C13.4954 93.109 13.5187 93.0891 13.5652 93.0393C13.6324 92.9686 13.6915 92.8906 13.7413 92.8067C13.9127 92.5289 13.9961 92.2058 13.9805 91.8798C13.9619 91.5532 13.8462 91.2397 13.6482 90.9794C13.5901 90.9012 13.5232 90.8298 13.4489 90.7668C13.4024 90.7136 13.3692 90.6937 13.3658 90.697Z" fill="#263238"/>
<path d="M14.2927 93.2919C14.4189 93.5202 14.5741 93.7313 14.7545 93.9198C14.9195 94.1233 15.1105 94.3043 15.3226 94.458C15.3226 94.458 15.0901 94.1989 14.8077 93.8766C14.5253 93.5544 14.3259 93.2819 14.2927 93.2919Z" fill="#263238"/>
<path d="M13.6117 92.5079C13.5918 92.5079 13.5752 92.5777 13.5386 92.6541C13.5021 92.7305 13.4622 92.797 13.4755 92.8103C13.4888 92.8236 13.5553 92.7737 13.5984 92.6807C13.6416 92.5877 13.6283 92.5079 13.6117 92.5079Z" fill="#263238"/>
<path d="M13.7181 91.8898C13.7015 91.8898 13.6816 91.9496 13.6749 92.0293C13.6683 92.109 13.6749 92.1722 13.6982 92.1722C13.7214 92.1722 13.7347 92.1124 13.7414 92.0326C13.748 91.9529 13.7347 91.8898 13.7181 91.8898Z" fill="#263238"/>
<path d="M13.5156 91.3217C13.5156 91.3217 13.5522 91.3882 13.5821 91.4646C13.612 91.541 13.6186 91.6108 13.6386 91.6141C13.6585 91.6174 13.6817 91.5344 13.6386 91.4413C13.5954 91.3483 13.5223 91.3051 13.5156 91.3217Z" fill="#263238"/>
<path d="M13.3296 90.9528C13.3296 90.9528 13.3296 90.9993 13.3296 91.0425C13.3296 91.0857 13.3728 91.1189 13.3894 91.1123C13.406 91.1056 13.3894 91.0657 13.3894 91.0192C13.3894 90.9727 13.3462 90.9461 13.3296 90.9528Z" fill="#263238"/>
<path d="M46.091 84.7599L47.3768 99.3084H41.8783L39.453 84.7599H46.091Z" fill="#FFBE9D"/>
<path d="M47.2173 99.4449V98.9565L41.8783 98.9332L41.9414 100.95H42.2737C43.7421 100.976 49.7356 100.99 50.7024 100.658C51.7456 100.299 47.2173 99.4449 47.2173 99.4449Z" fill="#1C1C1C"/>
<g opacity="0.5">
<path d="M43.8283 100.837C43.7345 100.392 43.4788 99.9977 43.1107 99.7307C42.7491 99.4678 42.3025 99.3493 41.8582 99.3985L41.9113 100.884L43.8283 100.837Z" fill="white"/>
</g>
<path opacity="0.5" d="M49.4264 99.9398C49.4264 99.9398 51.0211 100.339 50.8351 100.604C50.649 100.87 44.5891 101.086 41.908 100.937V100.817L48.9779 100.628C48.9779 100.628 49.1174 99.9664 49.4264 99.9398Z" fill="white"/>
<path d="M41.8284 100.83H41.9214H42.1839H43.1473C43.9646 100.83 45.0909 100.83 46.3335 100.774C47.576 100.717 48.7023 100.667 49.5163 100.611L50.4797 100.538L50.7422 100.511H50.4797L49.5129 100.565C48.699 100.611 47.576 100.668 46.3335 100.711C45.0909 100.754 43.9646 100.774 43.1473 100.784H42.1839H41.9214L41.8284 100.83Z" fill="#263238"/>
<path d="M48.9816 100.724C49.0181 100.562 49.0727 100.405 49.1444 100.255C49.2401 100.117 49.3516 99.9896 49.4766 99.8766C49.3124 99.9409 49.1792 100.066 49.1045 100.225C49.0035 100.371 48.9597 100.548 48.9816 100.724Z" fill="#263238"/>
<path d="M47.3865 99.983C47.4031 99.983 47.4762 99.8999 47.5493 99.7737C47.6224 99.6474 47.6689 99.5411 47.6523 99.5311C47.5845 99.5898 47.5302 99.6623 47.4928 99.7438C47.4405 99.8149 47.4042 99.8965 47.3865 99.983Z" fill="#263238"/>
<path d="M46.9513 99.7737C46.9513 99.7737 47.0443 99.7272 47.134 99.6408C47.2237 99.5544 47.2835 99.4747 47.2703 99.4647C47.257 99.4547 47.1772 99.5079 47.0875 99.5943C46.9978 99.6806 46.938 99.7537 46.9513 99.7737Z" fill="#263238"/>
<path d="M46.6622 99.2819C46.7511 99.311 46.8455 99.319 46.938 99.3052C47.0326 99.313 47.1277 99.3006 47.2171 99.2686C47.1274 99.238 47.0318 99.2289 46.938 99.242C46.7852 99.2454 46.6622 99.262 46.6622 99.2819Z" fill="#263238"/>
<path d="M46.5527 98.9298C46.6461 98.9881 46.7552 99.016 46.865 99.0096C46.9786 99.0281 47.0951 99.0094 47.1973 98.9564C47.0935 98.9454 46.9888 98.9454 46.885 98.9564C46.7752 98.9381 46.664 98.9292 46.5527 98.9298Z" fill="#263238"/>
<path d="M47.5496 99.5147C47.6595 99.534 47.7719 99.534 47.8818 99.5147C48.0051 99.4946 48.1263 99.4635 48.2439 99.4216C48.3147 99.3983 48.3827 99.3671 48.4466 99.3286C48.4868 99.3035 48.5164 99.2645 48.5296 99.219C48.5336 99.1938 48.5305 99.1679 48.5205 99.1444C48.5105 99.1209 48.4941 99.1007 48.4732 99.0861C48.341 99.0257 48.1918 99.0136 48.0516 99.0518C47.9113 99.09 47.7889 99.1762 47.7057 99.2954C47.6547 99.3644 47.6196 99.4438 47.6027 99.528C47.5948 99.5573 47.5948 99.5883 47.6027 99.6177C47.6363 99.5123 47.6856 99.4126 47.7489 99.322C47.8225 99.2304 47.9204 99.1613 48.0313 99.1226C48.096 99.0955 48.1655 99.0815 48.2356 99.0815C48.3058 99.0815 48.3752 99.0955 48.4399 99.1226C48.4964 99.1625 48.4765 99.2256 48.4167 99.2655C48.3573 99.2996 48.295 99.3285 48.2306 99.3519C48.1174 99.3959 48.0008 99.4303 47.8818 99.4549C47.6825 99.4981 47.5496 99.5047 47.5496 99.5147Z" fill="#263238"/>
<path d="M47.6424 99.5279C47.6794 99.4551 47.69 99.3717 47.6723 99.292C47.6593 99.2026 47.6239 99.1181 47.5693 99.0461C47.5401 98.9954 47.4979 98.9534 47.4472 98.9242C47.3964 98.895 47.3388 98.8798 47.2803 98.88C47.2461 98.8894 47.2168 98.9115 47.1983 98.9417C47.1798 98.9719 47.1734 99.0081 47.1806 99.0428C47.189 99.0971 47.2107 99.1485 47.2437 99.1923C47.2908 99.2662 47.3478 99.3333 47.4132 99.3917C47.4671 99.4524 47.5358 99.4981 47.6125 99.5245C47.6125 99.5245 47.5428 99.4647 47.4431 99.3618C47.388 99.2994 47.338 99.2328 47.2936 99.1624C47.2437 99.0893 47.2072 98.9631 47.2936 98.9431C47.38 98.9232 47.4697 99.0162 47.5228 99.0793C47.5732 99.1438 47.6084 99.2187 47.6258 99.2986C47.6375 99.3745 47.6431 99.4511 47.6424 99.5279Z" fill="#263238"/>
<path d="M41.9016 99.3751C41.9016 99.3751 42.0544 99.3552 42.2936 99.3751C42.6081 99.4023 42.9087 99.5174 43.1608 99.7074C43.4119 99.8958 43.6061 100.15 43.7223 100.442C43.812 100.668 43.8252 100.82 43.8385 100.817C43.8437 100.782 43.8437 100.746 43.8385 100.711C43.8242 100.615 43.8008 100.52 43.7688 100.428C43.6632 100.119 43.4662 99.8492 43.204 99.6542C42.9402 99.4626 42.626 99.3529 42.3003 99.3386C42.203 99.3303 42.1052 99.3303 42.0079 99.3386C41.9707 99.3446 41.9347 99.357 41.9016 99.3751Z" fill="#263238"/>
<path d="M44.4796 100.302C44.7357 100.351 44.9971 100.365 45.257 100.345C45.518 100.347 45.7781 100.316 46.0311 100.252C46.0311 100.232 45.6823 100.269 45.2537 100.282C44.8251 100.295 44.4796 100.285 44.4796 100.302Z" fill="#263238"/>
<path d="M43.4397 100.332C43.4397 100.332 43.4696 100.405 43.5095 100.481C43.5493 100.558 43.5693 100.631 43.5859 100.631C43.6025 100.631 43.6125 100.545 43.5659 100.455C43.5194 100.365 43.4497 100.319 43.4397 100.332Z" fill="#263238"/>
<path d="M43.0309 99.8602C43.0309 99.8602 43.0541 99.9267 43.1106 99.9798C43.1671 100.033 43.2236 100.066 43.2369 100.053C43.2502 100.04 43.2136 99.9865 43.1538 99.9333C43.094 99.8802 43.0409 99.8469 43.0309 99.8602Z" fill="#263238"/>
<path d="M42.4629 99.6541C42.4629 99.674 42.536 99.6707 42.6158 99.694C42.6955 99.7172 42.752 99.7604 42.7653 99.7471C42.7786 99.7338 42.732 99.6607 42.6324 99.6342C42.5327 99.6076 42.4563 99.6408 42.4629 99.6541Z" fill="#263238"/>
<path d="M42.0575 99.5646C42.0575 99.5812 42.0841 99.6078 42.1273 99.6244C42.1705 99.641 42.2136 99.6244 42.2203 99.6244C42.2269 99.6244 42.1937 99.5812 42.1505 99.5646C42.1073 99.548 42.0641 99.548 42.0575 99.5646Z" fill="#263238"/>
<path d="M36.4261 42.0614C36.4261 42.0614 40.7286 70.6335 40.104 72.0256C39.4794 73.4176 25.5422 87.6738 25.5422 87.6738L20.3062 78.7168C20.3062 78.7168 29.529 68.5006 29.3961 67.9723C29.2632 67.4441 22.7514 39.7623 22.7514 39.7623L36.4261 42.0614Z" fill="#263238"/>
<path d="M37.9578 52.6131C37.9146 52.3075 34.4427 44.5033 34.4427 44.5033L36.1272 42.1245L36.4262 42.0614L37.9578 52.6131Z" fill="#263238"/>
<path d="M20.3061 39.3702L20.0436 40.4301C19.2836 43.5576 19.7596 46.8577 21.3726 49.6429L33.0273 69.8527C33.8554 71.2847 34.4583 72.8355 34.8148 74.4508L37.7218 87.5275H47.2901C47.2901 87.5275 46.1074 78.5572 45.0542 72.0155C44.2568 67.0752 37.6454 51.7493 34.4427 44.4933L36.4361 42.0514L32.9908 41.4766L20.3061 39.3702Z" fill="#263238"/>
<path d="M34.6951 44.4467C34.8286 44.8836 34.9918 45.311 35.1835 45.7258C35.5157 46.5065 35.9409 47.5863 36.4061 48.7856C36.8712 49.985 37.2798 51.0814 37.5722 51.8721C37.7126 52.3068 37.8813 52.7318 38.0772 53.1445C38.0651 53.0208 38.0372 52.8991 37.9942 52.7824C37.931 52.5565 37.8314 52.2276 37.7018 51.8256C37.4393 51.0216 37.0373 49.9219 36.5855 48.7159C36.1336 47.5099 35.6585 46.4401 35.3064 45.6726C35.1303 45.2872 34.9741 44.9782 34.8778 44.7689C34.8315 44.6539 34.77 44.5455 34.6951 44.4467Z" fill="#455A64"/>
<path d="M35.742 78.4211C35.7494 78.346 35.7494 78.2703 35.742 78.1952C35.722 78.0257 35.6988 77.8131 35.6689 77.5473C35.6358 77.2049 35.5848 76.8644 35.516 76.5273C35.4396 76.1353 35.3665 75.6802 35.237 75.1984C35.1772 74.9526 35.114 74.6934 35.0476 74.4276C34.9811 74.1618 34.8881 73.8861 34.8017 73.6004C34.6423 73.0256 34.4163 72.4309 34.1971 71.7997C33.6761 70.44 33.0828 69.1091 32.4196 67.8129C31.1914 65.4815 29.8314 63.222 28.3464 61.0452C27.785 60.208 27.3198 59.5336 26.9942 59.0718L26.6188 58.5568C26.5766 58.4939 26.5288 58.435 26.476 58.3807C26.5046 58.4512 26.5414 58.5181 26.5856 58.5801L26.9344 59.1283C27.2667 59.6233 27.6986 60.301 28.2368 61.1217C29.3298 62.8161 30.8382 65.1683 32.2535 67.8992C32.9071 69.1846 33.4959 70.5019 34.0177 71.8462C34.2403 72.4708 34.4728 73.0622 34.6389 73.6303C34.7253 73.9127 34.815 74.1851 34.8914 74.4509C34.9679 74.7167 35.0277 74.9692 35.0908 75.215C35.2303 75.7001 35.3101 76.1486 35.3964 76.544C35.4828 76.9393 35.5426 77.2749 35.5825 77.5407C35.6224 77.8065 35.6622 78.0158 35.6921 78.1819C35.6995 78.2633 35.7163 78.3435 35.742 78.4211Z" fill="#455A64"/>
<path d="M21.8778 48.6894C21.8778 48.6894 21.8512 48.6595 21.8047 48.5897L21.6021 48.2575C21.7617 48.0065 21.9707 47.7906 22.2162 47.6227C22.4618 47.4548 22.7389 47.3385 23.0307 47.2807C23.467 47.1825 23.9181 47.169 24.3596 47.2408C24.878 47.3314 25.3872 47.4682 25.8812 47.6495C26.452 47.8258 27.0075 48.048 27.5424 48.314C28.1529 48.6181 28.6331 49.1325 28.8946 49.7625C29.0251 50.1064 29.0471 50.4821 28.9577 50.8389C28.8487 51.1847 28.7051 51.5186 28.5291 51.8356C28.3494 52.1447 28.2522 52.4948 28.2467 52.8523C28.2757 53.2129 28.4408 53.5491 28.7085 53.7925C29.3464 54.4271 30.29 54.5433 31.0707 54.9387C31.8327 55.3243 32.4536 55.9405 32.8448 56.6995C33.2122 57.3745 33.3847 58.1383 33.3432 58.9056C33.3039 59.5743 33.0884 60.2208 32.7186 60.7794C32.1905 61.5904 31.4019 62.1974 30.4827 62.5003C30.2351 62.5783 29.9801 62.6307 29.7218 62.6565C29.6323 62.6631 29.5423 62.6631 29.4527 62.6565C29.7909 62.6071 30.1243 62.5293 30.4494 62.4239C31.338 62.1047 32.0953 61.4994 32.6023 60.703C32.9527 60.1599 33.1543 59.5344 33.187 58.889C33.2183 58.1484 33.0471 57.4133 32.692 56.7627C32.311 56.0367 31.7128 55.4479 30.981 55.0782C30.6056 54.8922 30.1837 54.7659 29.7617 54.6065C29.3196 54.4608 28.9139 54.2217 28.5723 53.9055C28.2736 53.6312 28.0907 53.2534 28.0607 52.849C28.0666 52.4627 28.1707 52.0843 28.363 51.7493C28.5354 51.4407 28.6768 51.1157 28.7849 50.7791C28.867 50.4541 28.8461 50.1117 28.7251 49.7991C28.4822 49.2031 28.0312 48.7156 27.456 48.4269C26.9303 48.1565 26.3836 47.9287 25.8214 47.7458C25.3384 47.56 24.8389 47.4198 24.3297 47.3272C23.9041 47.249 23.4674 47.2546 23.0439 47.3438C22.7606 47.3961 22.4904 47.5037 22.2487 47.6605C22.007 47.8173 21.7985 48.0201 21.6353 48.2575L21.818 48.5897C21.8416 48.6206 21.8617 48.654 21.8778 48.6894Z" fill="#FAFAFA"/>
<path d="M46.0344 78.4575C45.7996 78.2513 45.5339 78.0831 45.247 77.9592C44.9047 77.8249 44.5479 77.7312 44.1838 77.6801C43.7619 77.6103 43.2702 77.5671 42.732 77.4808C42.1355 77.3952 41.56 77.2004 41.0343 76.906C40.0279 76.3431 39.2604 75.4336 38.8747 74.3468C38.4891 73.2601 38.5115 72.0703 38.9379 70.9989C39.2535 70.2181 39.7286 69.5404 39.8615 68.7862C39.9457 68.0482 39.8381 67.301 39.5492 66.6167C39.2966 65.982 39.0813 65.333 38.9046 64.6731C38.7614 64.0848 38.7614 63.4707 38.9046 62.8824C39.1129 62.0306 39.5935 61.27 40.2735 60.7162C40.5165 60.5104 40.7929 60.3474 41.0907 60.2345C40.8195 60.3917 40.5608 60.5694 40.3166 60.7661C39.6711 61.3266 39.2189 62.0765 39.0243 62.909C38.8865 63.4789 38.8865 64.0734 39.0243 64.6432C39.2091 65.2955 39.4309 65.9366 39.6887 66.5636C39.9924 67.2719 40.1069 68.0469 40.021 68.8128C39.8814 69.6201 39.393 70.3078 39.094 71.0653C38.6821 72.0982 38.6569 73.245 39.0231 74.295C39.3894 75.3449 40.1224 76.2272 41.0874 76.7798C41.601 77.0734 42.164 77.2705 42.7486 77.3612C43.2802 77.4542 43.7719 77.504 44.1971 77.5837C44.5673 77.6493 44.9278 77.7609 45.2703 77.916C45.4859 78.0126 45.6862 78.1402 45.8649 78.2947C45.9812 78.3911 46.041 78.4509 46.0344 78.4575Z" fill="#FAFAFA"/>
<path d="M41.5692 87.9895C41.5359 87.9895 41.526 87.5576 41.3532 86.8898C41.2518 86.4997 41.1127 86.1202 40.9379 85.7569C40.7195 85.3144 40.4556 84.8957 40.1505 84.5077C39.8381 84.1252 39.4862 83.7766 39.1007 83.4678C38.7839 83.2142 38.4435 82.9917 38.084 82.8034C37.4694 82.4911 37.0475 82.3881 37.0574 82.3549C37.1596 82.3561 37.2608 82.3752 37.3564 82.4113C37.4697 82.4369 37.5808 82.4714 37.6887 82.5143C37.8386 82.5645 37.9851 82.6244 38.1272 82.6937C38.5034 82.8664 38.8598 83.0792 39.1904 83.3283C40.0018 83.9423 40.6479 84.7483 41.0708 85.6739C41.2431 86.0496 41.3745 86.4428 41.4628 86.8467C41.4999 87.0008 41.5265 87.1574 41.5426 87.3151C41.5616 87.4326 41.5705 87.5516 41.5692 87.6706C41.5877 87.7761 41.5877 87.884 41.5692 87.9895Z" fill="#FAFAFA"/>
<path d="M36.6588 50.4072C36.6588 50.4072 36.6156 50.4071 36.5292 50.4337C36.4026 50.4517 36.275 50.4628 36.1472 50.4669C35.6773 50.4825 35.2077 50.4322 34.7518 50.3175C34.0713 50.1534 33.4271 49.8651 32.8514 49.4669C32.134 48.9876 31.5441 48.3409 31.1326 47.5827C30.721 46.8244 30.5002 45.9773 30.4892 45.1147C30.4736 44.4146 30.5862 43.7176 30.8215 43.0581C30.9755 42.6133 31.1901 42.1918 31.4594 41.8056C31.5303 41.701 31.608 41.6011 31.6919 41.5066C31.7484 41.4402 31.7816 41.4069 31.7849 41.4103C31.4311 41.9341 31.1464 42.5013 30.9377 43.098C30.7273 43.7475 30.6328 44.4291 30.6587 45.1113C30.6764 45.9452 30.8917 46.763 31.2867 47.4976C31.6817 48.2322 32.2453 48.8627 32.9311 49.3374C33.4883 49.7305 34.1102 50.0229 34.7684 50.2012C35.3867 50.3526 36.0224 50.4219 36.6588 50.4072Z" fill="#FAFAFA"/>
<path d="M28.1402 69.0487C28.2045 69.071 28.2668 69.0987 28.3263 69.1318C28.4492 69.1882 28.622 69.2846 28.8413 69.4142C29.462 69.7905 30.0119 70.2729 30.4659 70.8395C30.7795 71.237 31.0202 71.6869 31.1769 72.1684C31.3508 72.726 31.3895 73.3171 31.2898 73.8927C31.1903 74.5381 30.8823 75.1332 30.4127 75.5871C29.921 76.0655 29.2001 76.225 28.7815 76.7499C28.3628 77.2748 28.2698 77.9625 28.2067 78.6038C28.1864 79.2411 28.0745 79.8721 27.8745 80.4776C27.6492 81.0246 27.2388 81.475 26.715 81.75C26.2697 81.993 25.7786 82.1401 25.2731 82.1819C24.5488 82.2218 23.8227 82.1501 23.1202 81.9693C22.871 81.9095 22.6816 81.8596 22.5521 81.8231C22.4854 81.8103 22.4207 81.7891 22.3594 81.76C22.4278 81.7632 22.4956 81.7732 22.562 81.7899L23.1335 81.9028C23.831 82.0569 24.5472 82.1095 25.2598 82.059C25.7454 82.0121 26.216 81.8651 26.6419 81.6271C27.133 81.3618 27.517 80.9344 27.7283 80.4177C27.9152 79.8247 28.0192 79.2087 28.0373 78.5871C28.0617 78.2514 28.1128 77.9181 28.1901 77.5904C28.2681 77.2428 28.425 76.9177 28.6486 76.6403C29.127 76.0655 29.8512 75.9093 30.3097 75.4642C30.7538 75.0374 31.0465 74.4776 31.1436 73.8694C31.2422 73.316 31.2104 72.7472 31.0506 72.2083C30.9044 71.7427 30.6796 71.3057 30.3861 70.9159C29.9474 70.3524 29.4187 69.8652 28.8213 69.474C28.612 69.3344 28.4426 69.2314 28.3263 69.165C28.2597 69.1341 28.1972 69.095 28.1402 69.0487Z" fill="#FAFAFA"/>
<path d="M29.1603 0.302935C27.3164 -0.155548 25.333 0.997303 24.416 2.65847C23.499 4.31964 23.4891 6.35624 23.921 8.20346C24.1037 8.97756 24.3595 9.77825 24.1801 10.5557C23.9874 11.3896 23.3229 12.0374 23.004 12.8348C22.396 14.373 23.1701 16.0774 23.9276 17.5459C24.2598 18.2103 24.715 18.9579 25.4526 19.104C26.2798 19.2668 27.0074 18.6057 27.7051 18.1306C28.9366 17.2995 30.4355 16.9616 31.9045 17.1837C33.5657 17.4396 35.0674 18.3931 36.7352 18.423C37.4906 18.4284 38.2353 18.2442 38.9011 17.8872C39.5668 17.5302 40.1324 17.0119 40.5459 16.3797C41.041 15.6056 41.2104 14.4395 40.4961 13.868C40.0243 13.4926 39.3034 13.5059 38.8881 13.0674C38.3831 12.5325 38.6024 11.672 38.8615 10.9876C39.1207 10.3032 39.3798 9.46595 38.918 8.8945C38.403 8.24997 37.2867 8.3729 36.795 7.71175C36.3033 7.05061 36.8216 6.05058 36.795 5.17348C36.7624 4.78723 36.6429 4.41333 36.4456 4.07967C36.2483 3.74602 35.9782 3.46122 35.6555 3.24653C35.0309 2.79137 34.9445 2.64518 34.084 1.08036" fill="#263238"/>
<path d="M26.5889 15.4961L33.2336 16.0642C33.2336 16.0642 38.0742 15.3565 39.9281 27.6326L47.2837 27.3302L47.616 32.2207L37.4995 32.7191L36.3067 32.0048L36.4263 42.0615L19.6917 40.8289C20.0705 38.5464 21.8546 35.543 22.4526 33.6161C21.8446 32.0945 18.4824 25.8917 18.3163 22.7055C17.8644 13.9811 26.5889 15.4961 26.5889 15.4961Z" fill="#1C1C1C"/>
<path opacity="0.3" d="M37.0543 24.4962C37.0543 24.4962 38.2305 25.8252 38.2504 26.9448C38.2803 28.7388 37.8285 29.6591 38.3899 31.6193L36.7886 32.0047C36.7886 32.0047 36.5427 31.5263 36.752 30.503C36.9613 29.4797 37.3666 28.2339 37.5461 27.1209C37.7053 26.2153 37.5306 25.2827 37.0543 24.4962Z" fill="black"/>
<path d="M36.7882 32.0047C36.7392 31.8786 36.7057 31.7469 36.6885 31.6127C36.6414 31.2465 36.6414 30.8758 36.6885 30.5097C36.7596 29.9717 36.8706 29.4397 37.0208 28.9183C37.2096 28.2887 37.3561 27.6471 37.4593 26.998C37.5579 26.3554 37.488 25.6984 37.2567 25.0909C37.0445 24.6046 36.755 24.1559 36.3995 23.762C35.7948 23.0743 35.3663 22.6922 35.4028 22.6689C35.5161 22.7412 35.6219 22.8246 35.7184 22.9181C35.9952 23.1577 36.2581 23.4128 36.5058 23.6823C36.886 24.0795 37.1951 24.5391 37.4195 25.0411C37.6713 25.6735 37.7482 26.3621 37.6421 27.0345C37.5409 27.6921 37.3887 28.3408 37.1869 28.9747C37.0297 29.4881 36.9043 30.0107 36.8115 30.5396C36.7557 30.8966 36.7367 31.2584 36.755 31.6193C36.7794 31.7463 36.7906 31.8755 36.7882 32.0047Z" fill="#263238"/>
<g opacity="0.2">
<path d="M37.0078 31.8785L32.0509 31.9915C31.658 32.0286 31.2617 31.9822 30.888 31.8553C30.3664 31.636 30.0309 31.1277 29.7385 30.6426C28.8681 29.2074 28.0707 27.7323 27.3464 26.2173C27.3464 26.2173 28.6554 30.3802 29.4761 32.1975C29.5558 32.4268 29.7206 32.6168 29.9364 32.7281C30.1522 32.8394 30.4025 32.8635 30.6355 32.7955C32.7928 32.7995 34.9392 32.4906 37.0078 31.8785Z" fill="black"/>
</g>
<path d="M69.4138 20.9147C70.1447 20.8627 70.8767 20.9988 71.5401 21.31C71.8227 21.4479 72.1326 21.5206 72.4471 21.5227H73.2577V11.1071C73.2577 10.897 73.2163 10.6889 73.1358 10.4948C73.0552 10.3007 72.9372 10.1244 72.7885 9.97597C72.6397 9.82753 72.4632 9.70989 72.2689 9.62978C72.0746 9.54966 71.8665 9.50865 71.6563 9.50909H61.284V8.80475C61.2874 8.47831 61.3646 8.15687 61.5099 7.86453C61.9049 7.05465 62.0329 6.14037 61.8754 5.25317C61.691 4.18668 61.113 3.22828 60.2557 2.56767C59.3984 1.90706 58.3243 1.5924 57.246 1.68598C56.1678 1.77956 55.1639 2.27456 54.4333 3.07298C53.7026 3.87141 53.2983 4.91507 53.3004 5.99738C53.3004 6.596 53.426 7.18797 53.6692 7.73496C53.7922 8.00891 53.8578 8.30515 53.8619 8.60541V9.50909H43.7454C43.3216 9.50909 42.9151 9.67746 42.6154 9.97715C42.3157 10.2768 42.1473 10.6833 42.1473 11.1071V39.244C42.1473 39.415 42.181 39.5844 42.2465 39.7424C42.3119 39.9004 42.4079 40.044 42.5288 40.1649C42.6497 40.2859 42.7933 40.3818 42.9513 40.4472C43.1093 40.5127 43.2787 40.5464 43.4497 40.5464H71.9554C72.3005 40.5455 72.6312 40.408 72.8753 40.164C73.1193 39.9199 73.2568 39.5892 73.2577 39.244V29.0743H72.1049C71.8383 29.0747 71.5743 29.1266 71.3274 29.2272C70.8169 29.4355 70.2708 29.5427 69.7194 29.5428C68.5739 29.5833 67.4593 29.1672 66.6206 28.3858C65.782 27.6045 65.2881 26.5221 65.2476 25.3766C65.207 24.2311 65.6232 23.1164 66.4045 22.2778C67.1858 21.4392 68.2683 20.9452 69.4138 20.9047V20.9147Z" fill="#1C1C1C"/>
<path opacity="0.2" d="M69.4138 20.9147C70.1447 20.8627 70.8767 20.9988 71.5401 21.31C71.8227 21.4479 72.1326 21.5206 72.4471 21.5227H73.2577V11.1071C73.2577 10.897 73.2163 10.6889 73.1358 10.4948C73.0552 10.3007 72.9372 10.1244 72.7885 9.97597C72.6397 9.82753 72.4632 9.70989 72.2689 9.62978C72.0746 9.54966 71.8665 9.50865 71.6563 9.50909H61.284V8.80475C61.2874 8.47831 61.3646 8.15687 61.5099 7.86453C61.9049 7.05465 62.0329 6.14037 61.8754 5.25317C61.691 4.18668 61.113 3.22828 60.2557 2.56767C59.3984 1.90706 58.3243 1.5924 57.246 1.68598C56.1678 1.77956 55.1639 2.27456 54.4333 3.07298C53.7026 3.87141 53.2983 4.91507 53.3004 5.99738C53.3004 6.596 53.426 7.18797 53.6692 7.73496C53.7922 8.00891 53.8578 8.30515 53.8619 8.60541V9.50909H43.7454C43.3216 9.50909 42.9151 9.67746 42.6154 9.97715C42.3157 10.2768 42.1473 10.6833 42.1473 11.1071V39.244C42.1473 39.415 42.181 39.5844 42.2465 39.7424C42.3119 39.9004 42.4079 40.044 42.5288 40.1649C42.6497 40.2859 42.7933 40.3818 42.9513 40.4472C43.1093 40.5127 43.2787 40.5464 43.4497 40.5464H71.9554C72.3005 40.5455 72.6312 40.408 72.8753 40.164C73.1193 39.9199 73.2568 39.5892 73.2577 39.244V29.0743H72.1049C71.8383 29.0747 71.5743 29.1266 71.3274 29.2272C70.8169 29.4355 70.2708 29.5427 69.7194 29.5428C68.5739 29.5833 67.4593 29.1672 66.6206 28.3858C65.782 27.6045 65.2881 26.5221 65.2476 25.3766C65.207 24.2311 65.6232 23.1164 66.4045 22.2778C67.1858 21.4392 68.2683 20.9452 69.4138 20.9047V20.9147Z" fill="white"/>
<path d="M26.499 15.7285L25.984 4.00061L30.6353 0.47229L34.8679 2.54211C34.8679 2.54211 35.0108 7.85785 34.8679 10.1636C34.7251 12.4693 32.4028 12.7151 32.4028 12.7151C32.4028 12.7151 32.4592 14.064 32.5124 15.4826C32.5277 15.89 32.4602 16.2962 32.3139 16.6767C32.1677 17.0573 31.9458 17.4042 31.6616 17.6964C31.3774 17.9887 31.0368 18.2203 30.6606 18.3771C30.2843 18.534 29.8801 18.6128 29.4725 18.6089C28.7027 18.5995 27.9657 18.2958 27.4128 17.7602C26.8598 17.2245 26.5329 16.4976 26.499 15.7285Z" fill="#FFBE9D"/>
<path d="M34.416 6.41605C34.416 6.47453 34.3986 6.5317 34.3661 6.58033C34.3336 6.62895 34.2875 6.66685 34.2334 6.68923C34.1794 6.71161 34.1199 6.71746 34.0626 6.70605C34.0052 6.69465 33.9525 6.66649 33.9112 6.62514C33.8698 6.58378 33.8417 6.53109 33.8303 6.47373C33.8189 6.41638 33.8247 6.35692 33.8471 6.30289C33.8695 6.24886 33.9074 6.20269 33.956 6.17019C34.0046 6.1377 34.0618 6.12036 34.1203 6.12036C34.1987 6.12036 34.2739 6.15152 34.3294 6.20697C34.3848 6.26242 34.416 6.33763 34.416 6.41605Z" fill="#263238"/>
<path d="M34.7019 6.0938C34.662 6.13367 34.4461 5.94762 34.1271 5.93101C33.8082 5.9144 33.5723 6.06723 33.5391 6.02404C33.5058 5.98085 33.5623 5.93433 33.6653 5.86456C33.8051 5.77246 33.9711 5.72819 34.1382 5.73837C34.3053 5.74856 34.4646 5.81265 34.5922 5.92105C34.6886 6.0041 34.7185 6.0639 34.7019 6.0938Z" fill="#263238"/>
<path d="M30.9976 6.41605C30.9976 6.47453 30.9803 6.5317 30.9478 6.58033C30.9153 6.62895 30.8691 6.66685 30.8151 6.68923C30.7611 6.71161 30.7016 6.71746 30.6443 6.70605C30.5869 6.69465 30.5342 6.66649 30.4929 6.62514C30.4515 6.58378 30.4233 6.53109 30.4119 6.47373C30.4005 6.41638 30.4064 6.35692 30.4288 6.30289C30.4511 6.24886 30.489 6.20269 30.5377 6.17019C30.5863 6.1377 30.6435 6.12036 30.7019 6.12036C30.7804 6.12036 30.8556 6.15152 30.911 6.20697C30.9665 6.26242 30.9976 6.33763 30.9976 6.41605Z" fill="#263238"/>
<path d="M31.1803 6.09378C31.1404 6.13365 30.9245 5.9476 30.6055 5.93099C30.2866 5.91438 30.0507 6.06721 30.0175 6.02402C29.9842 5.98083 30.0407 5.93431 30.1437 5.86454C30.2797 5.77259 30.4414 5.72607 30.6055 5.73165C30.7728 5.74255 30.9323 5.80657 31.0607 5.91438C31.167 6.00408 31.1969 6.06388 31.1803 6.09378Z" fill="#263238"/>
<path d="M32.413 12.7085C31.3176 12.662 30.2583 12.3035 29.3597 11.6753C29.3597 11.6753 30.1239 13.3996 32.4362 13.3066L32.413 12.7085Z" fill="#EB996E"/>
<path d="M32.3265 8.77821C32.4962 8.73666 32.67 8.71437 32.8448 8.71176C32.9245 8.71176 33.0042 8.71176 33.0242 8.63867C33.0334 8.54963 33.0173 8.4598 32.9777 8.37953C32.909 8.17354 32.8359 7.95205 32.7584 7.71506C32.6089 7.24661 32.4793 6.82135 32.3896 6.51238C32.3308 6.34701 32.2918 6.17527 32.2733 6.00073C32.3605 6.15232 32.4286 6.31413 32.476 6.48247C32.5856 6.78813 32.7318 7.20674 32.8813 7.67519L33.0906 8.33966C33.1384 8.44368 33.149 8.561 33.1205 8.6719C33.1088 8.70018 33.0907 8.72538 33.0676 8.74555C33.0446 8.76572 33.0172 8.7803 32.9876 8.78817C32.9412 8.79249 32.8945 8.79249 32.8481 8.78817C32.6744 8.80575 32.4993 8.8024 32.3265 8.77821Z" fill="#263238"/>
<path d="M32.0905 9.05383C31.9658 9.08669 31.8515 9.15071 31.7583 9.23988C31.701 9.28835 31.6633 9.35603 31.6522 9.43028C31.6411 9.50453 31.6575 9.58027 31.6981 9.64335C31.7388 9.70643 31.8011 9.75254 31.8733 9.77306C31.9455 9.79357 32.0228 9.7871 32.0905 9.75485C32.1514 9.74161 32.2086 9.71548 32.2585 9.67823C32.3084 9.64098 32.3497 9.59347 32.3796 9.5389C32.4075 9.48201 32.4186 9.41831 32.4116 9.35533C32.4045 9.29234 32.3796 9.23268 32.3397 9.1834C32.2982 9.13865 32.2427 9.10933 32.1823 9.10027C32.122 9.09122 32.0603 9.10296 32.0075 9.13357" fill="#EB996E"/>
<path d="M32.5025 9.51257C32.5025 9.55908 32.2401 9.63217 31.9577 9.46938C31.6753 9.30658 31.5989 9.03747 31.6454 9.0275C31.6919 9.01754 31.8115 9.19362 32.0441 9.31987C32.2766 9.44612 32.4959 9.46273 32.5025 9.51257Z" fill="#263238"/>
<path d="M30.8945 0.0138329C30.4063 -0.00308202 29.9203 0.0878929 29.4712 0.28027C29.0222 0.472647 28.6211 0.761693 28.2965 1.12682C27.6519 1.87258 27.3241 2.84059 27.3828 3.82456C27.3763 4.19419 27.4932 4.55547 27.7151 4.85116C28.0473 5.23323 28.6088 5.30965 29.1171 5.35948C29.6333 5.45514 30.1649 5.42782 30.6686 5.27974C31.1603 5.09037 31.569 4.58205 31.4593 4.07041C31.2168 4.40265 31.4195 4.89435 31.765 5.10366C32.1307 5.28302 32.5391 5.35666 32.9444 5.31629H34.6853C34.884 5.33592 35.0838 5.29294 35.2568 5.19336C35.3497 5.09877 35.4229 4.98658 35.472 4.86335C35.521 4.74012 35.545 4.60835 35.5425 4.47574C35.6355 3.5488 35.7219 2.56207 35.2966 1.73481C34.8742 1.00186 34.1851 0.460318 33.373 0.223142C32.579 -0.0393229 31.7118 0.0802825 30.8846 0.0271251" fill="#263238"/>
<path d="M25.9841 15.3962C26.6187 15.7284 27.8214 14.4194 28.2134 13.8181C28.5625 13.1845 28.6799 12.4491 28.5457 11.7383C28.4626 11.024 28.2732 10.323 28.2566 9.60538C28.2334 8.44256 28.6719 7.32958 28.8779 6.18337C29.0989 4.93656 29.0456 3.65658 28.7218 2.43245C28.5955 1.95736 28.3895 1.43575 27.9244 1.25634C27.73 1.19146 27.5219 1.17911 27.3212 1.22054C27.1205 1.26196 26.9343 1.35569 26.7815 1.49223C26.4807 1.76965 26.2448 2.10995 26.0905 2.48893L25.7217 5.28634L25.9974 9.20338L25.9841 15.3962Z" fill="#263238"/>
<path d="M42.7088 30.1474L44.4032 35.9283C44.4032 35.9283 35.5359 39.1543 30.7351 39.0945C26.2333 39.0413 24.9443 38.5297 23.3628 34.8951C21.7814 31.2604 19.974 27.0876 19.6053 24.6855C19.6053 24.6855 15.9872 14.6454 25.6752 15.6355L27.0041 23.2768C27.0041 23.2768 28.0772 26.8218 28.1536 27.0278C28.8779 28.9414 29.8148 31.7455 30.7218 32.0844C31.6288 32.4232 42.7088 30.1474 42.7088 30.1474Z" fill="#1C1C1C"/>
<path d="M42.7089 30.1474C42.6337 30.1757 42.5558 30.1957 42.4763 30.2072L41.8118 30.3501C41.2205 30.473 40.3633 30.6557 39.3002 30.9016C38.237 31.1474 36.9745 31.4498 35.526 31.7155C33.953 32.0275 32.352 32.1756 30.7485 32.1574H30.692L30.672 32.1043C30.4893 31.6292 30.2966 31.1275 30.1139 30.6158C28.8381 27.031 27.868 23.7353 27.0839 21.3764C26.6952 20.1937 26.3696 19.2402 26.1371 18.5857C26.0274 18.2534 25.9377 18.0175 25.8713 17.8315C25.8352 17.7446 25.8074 17.6545 25.7882 17.5624C25.7882 17.5624 25.8314 17.6488 25.9045 17.8182C25.9776 17.9876 26.0773 18.2368 26.2002 18.5624C26.4527 19.2103 26.7949 20.1571 27.1969 21.3366C28.0142 23.6888 29.0042 26.9845 30.2767 30.556C30.4594 31.0677 30.6488 31.5527 30.8315 32.0411L30.7518 31.988C32.3443 32.0078 33.9349 31.8675 35.4994 31.5694C36.9347 31.3102 38.2071 31.0145 39.2769 30.7919C40.3467 30.5693 41.2039 30.3966 41.8019 30.2903L42.4863 30.1806C42.5598 30.1656 42.6341 30.1545 42.7089 30.1474Z" fill="#263238"/>
<path d="M44.4032 35.9285C44.3208 35.9764 44.234 36.0164 44.1441 36.0481C43.9713 36.1212 43.7155 36.2209 43.3833 36.3438C42.7188 36.5897 41.742 36.9153 40.5227 37.2708C39.3034 37.6262 37.8449 38.015 36.2203 38.4269C34.4628 38.9173 32.6611 39.2323 30.8414 39.3672C30.3606 39.39 29.8786 39.3778 29.3995 39.3306C28.9304 39.2876 28.4677 39.1906 28.0208 39.0416C27.1837 38.7385 26.4164 38.2695 25.7649 37.6628C24.687 36.6229 23.7889 35.4116 23.107 34.078C22.509 32.9584 22.1103 32.0148 21.8246 31.3603C21.6884 31.0281 21.5854 30.7789 21.519 30.6028C21.4788 30.5174 21.4465 30.4284 21.4226 30.337C21.4733 30.4166 21.5157 30.5012 21.5489 30.5895C21.6319 30.7756 21.7449 31.0214 21.8811 31.3337C22.1768 31.9783 22.5987 32.9118 23.21 34.0215C23.8991 35.3318 24.7968 36.5213 25.8679 37.5432C26.5068 38.1277 27.2556 38.5795 28.0706 38.8721C28.5016 39.0145 28.9475 39.107 29.3995 39.1479C29.8709 39.1951 30.345 39.2073 30.8182 39.1844C32.6259 39.0512 34.4162 38.7419 36.1638 38.2608C37.7918 37.8588 39.2536 37.4867 40.4829 37.1445C41.7121 36.8023 42.6823 36.48 43.3534 36.2707L44.1242 36.0049C44.2151 35.9723 44.3084 35.9468 44.4032 35.9285Z" fill="#263238"/>
<path opacity="0.2" d="M23.0306 34.0182C23.0306 34.0182 24.6918 40.3971 29.0108 40.2675C33.3299 40.1379 37.3865 38.2907 37.3865 38.2907L37.1938 38.0914C37.1938 38.0914 29.8846 39.6662 27.8547 38.6761C23.9974 36.8023 23.0306 34.0182 23.0306 34.0182Z" fill="black"/>
<path d="M43.8018 35.2639H45.1606C46.3932 35.1443 47.081 35.1244 47.4265 34.7988C47.8883 34.3569 47.2537 33.9283 47.2537 33.9283C47.2537 33.9283 48.1441 33.6194 48.061 33.0778C48.0046 32.7057 47.5826 32.6659 47.5826 32.6659C47.5826 32.6659 48.37 32.3569 48.5262 32.028C48.7355 31.5828 48.1939 31.3436 48.1939 31.3436C49.2671 30.6791 49.1707 30.0146 48.9215 29.9615C48.6724 29.9083 47.8384 30.2937 47.8384 30.2937C47.1308 30.4964 45.2005 31.0844 45.9148 30.0213C46.6291 28.9581 46.7786 27.8717 46.6158 27.5494C46.5703 27.4793 46.504 27.4251 46.4263 27.3944C46.3485 27.3637 46.2631 27.358 46.182 27.3781C46.1008 27.3982 46.028 27.4431 45.9735 27.5066C45.9191 27.5701 45.8858 27.6489 45.8783 27.7322C45.7681 28.1503 45.5992 28.5508 45.3766 28.9216C45.2086 29.2269 44.9908 29.502 44.7321 29.7355C44.4297 30.0047 44.1606 30.2206 43.9314 30.4L42.722 31.5628L43.8018 35.2639Z" fill="#FFBE9D"/>
</svg>
