<svg width="151" height="141" viewBox="0 0 151 141" fill="none" xmlns="http://www.w3.org/2000/svg">
<path d="M75.0849 140.208C116.553 140.208 150.17 120.799 150.17 96.857C150.17 72.915 116.553 53.5061 75.0849 53.5061C33.6166 53.5061 0 72.915 0 96.857C0 120.799 33.6166 140.208 75.0849 140.208Z" fill="#F0F0F0"/>
<path d="M59.5477 129.707C73.8475 129.707 85.4397 123.014 85.4397 114.759C85.4397 106.504 73.8475 99.8115 59.5477 99.8115C45.248 99.8115 33.6558 106.504 33.6558 114.759C33.6558 123.014 45.248 129.707 59.5477 129.707Z" fill="#E0E0E0"/>
<path d="M91.3901 86.6042L90.1822 85.9062C89.9809 85.7755 89.8134 85.5992 89.6932 85.3915C89.573 85.1838 89.5036 84.9506 89.4906 84.711V34.5078C89.5038 34.2686 89.5729 34.0359 89.6925 33.8283C89.812 33.6207 89.9787 33.4441 90.179 33.3127L123.755 13.9287C123.969 13.8204 124.205 13.7639 124.445 13.7639C124.685 13.7639 124.921 13.8204 125.135 13.9287L126.343 14.6267C126.544 14.7574 126.712 14.9338 126.832 15.1414C126.952 15.3491 127.022 15.5823 127.035 15.8219V66.0251C127.021 66.2643 126.952 66.497 126.833 66.7046C126.713 66.9122 126.547 67.0888 126.346 67.2202L92.7701 86.6074C92.5562 86.716 92.3196 86.7723 92.0797 86.7718C91.8398 86.7712 91.6035 86.7138 91.3901 86.6042Z" fill="#455A64"/>
<path d="M127.035 15.7103C126.987 15.3534 126.697 15.2227 126.349 15.4235L92.7701 34.8106C92.5671 34.938 92.3994 35.1145 92.2825 35.3237L89.6914 33.829C89.8073 33.6182 89.9752 33.4404 90.179 33.3127L123.755 13.9287C123.969 13.8204 124.205 13.7639 124.445 13.7639C124.685 13.7639 124.921 13.8204 125.135 13.9287L126.343 14.6267C126.53 14.7468 126.688 14.9058 126.807 15.0929C126.927 15.2799 127.004 15.4905 127.035 15.7103Z" fill="#455A64"/>
<path d="M92.6521 86.6615C92.4481 86.7442 92.2288 86.7821 92.0088 86.7727C91.7889 86.7634 91.5736 86.707 91.3773 86.6073L90.1662 85.9062C89.9659 85.7748 89.7992 85.5982 89.6797 85.3906C89.5601 85.183 89.4909 84.9502 89.4778 84.711V34.5078C89.486 34.2682 89.5551 34.0345 89.6786 33.829L92.2697 35.3237C92.1438 35.5296 92.0735 35.7646 92.0657 36.0058V86.2089C92.0785 86.6041 92.327 86.7858 92.6521 86.6615Z" fill="#263238"/>
<path d="M92.0786 36.0123V86.2091C92.0786 86.6489 92.3973 86.8274 92.7702 86.6075L126.346 67.2203C126.547 67.089 126.713 66.9123 126.833 66.7048C126.952 66.4972 127.022 66.2644 127.035 66.0252V15.822C127.035 15.3822 126.716 15.2037 126.346 15.4236L92.7702 34.8107C92.5681 34.942 92.4 35.1194 92.2798 35.3283C92.1596 35.5372 92.0906 35.7716 92.0786 36.0123Z" fill="#37474F"/>
<path d="M84.2382 55.1348C83.8047 54.8766 81.7937 53.7324 81.6885 53.6719C81.6065 53.623 81.5366 53.5563 81.4839 53.4768C81.4311 53.3972 81.3969 53.3069 81.3838 53.2123C81.3706 53.1178 81.3788 53.0215 81.4079 52.9306C81.4369 52.8397 81.486 52.7565 81.5515 52.6871L89.4905 44.1711L92.0784 45.6563L84.1426 54.1786C84.0802 54.245 84.0328 54.3239 84.0036 54.4102C83.9743 54.4964 83.9639 54.5878 83.9729 54.6784C83.982 54.769 84.0104 54.8566 84.0561 54.9353C84.1019 55.0141 84.1639 55.0821 84.2382 55.1348Z" fill="#455A64"/>
<path d="M92.0784 45.6659L84.1426 54.1786C84.0544 54.2727 83.9969 54.3913 83.9775 54.5188C83.9582 54.6463 83.978 54.7766 84.0343 54.8926C84.0905 55.0086 84.1807 55.1048 84.2927 55.1685C84.4048 55.2323 84.5336 55.2605 84.6621 55.2495L92.0784 54.6376V45.6659Z" fill="#37474F"/>
<path d="M109.557 30.3392C113.47 28.0795 116.642 29.9121 116.642 34.4314C116.642 38.9507 113.47 44.4421 109.557 46.7017C105.643 48.9614 102.472 47.1288 102.472 42.6127C102.472 38.0966 105.643 32.5988 109.557 30.3392Z" fill="#1C1C1C"/>
<path d="M109.505 33.8959C110.78 33.1629 111.803 33.7557 111.803 35.2218C111.76 36.0187 111.529 36.7942 111.13 37.4853C110.731 38.1763 110.174 38.7636 109.505 39.1993C108.231 39.9323 107.204 39.3395 107.204 37.8734C107.248 37.0762 107.479 36.3006 107.879 35.6095C108.279 34.9184 108.836 34.3313 109.505 33.8959Z" fill="white"/>
<path d="M114.037 41.7106C114.037 39.3043 112.345 38.3259 110.261 39.5306L108.957 40.2828C106.873 41.4875 105.181 44.426 105.181 46.8259V47.4856C105.574 47.6114 105.985 47.6748 106.398 47.6736C107.516 47.6356 108.605 47.306 109.556 46.7175C111.368 45.6016 112.901 44.0863 114.037 42.2875V41.7106Z" fill="white"/>
<path d="M105.069 69.0719L114.044 63.8897C114.426 63.6698 114.735 63.8483 114.735 64.2881V67.1788C114.722 67.4184 114.653 67.6515 114.533 67.8592C114.413 68.0669 114.245 68.2433 114.044 68.3739L105.069 73.5561C104.686 73.7761 104.377 73.5976 104.377 73.1578V70.2671C104.39 70.0275 104.46 69.7943 104.58 69.5866C104.7 69.3789 104.868 69.2026 105.069 69.0719Z" fill="#1C1C1C"/>
<path d="M100.674 62.6148L118.429 52.3587C118.885 52.0942 119.258 52.3077 119.258 52.8368V53.9109C119.243 54.1982 119.159 54.4779 119.015 54.7271C118.871 54.9763 118.671 55.188 118.429 55.345L100.665 65.6011C100.209 65.8657 99.8391 65.6521 99.8391 65.1231V64.0586C99.8536 63.7689 99.937 63.4869 100.082 63.2358C100.227 62.9847 100.43 62.7719 100.674 62.6148Z" fill="#FAFAFA"/>
<path d="M102.752 55.192C102.994 55.0518 103.182 55.0295 103.316 55.1283C103.45 55.2271 103.517 55.447 103.517 55.7848C103.524 56.0932 103.455 56.3985 103.316 56.674C103.191 56.9231 102.995 57.1294 102.752 57.2668L102.274 57.5441V58.5735C102.273 58.609 102.264 58.6438 102.249 58.6755C102.237 58.7044 102.217 58.7289 102.191 58.7457L101.949 58.8859C101.941 58.8921 101.931 58.8954 101.92 58.8954C101.91 58.8954 101.9 58.8921 101.892 58.8859C101.874 58.8643 101.866 58.8368 101.869 58.8094V55.8295C101.869 55.7942 101.877 55.7594 101.892 55.7275C101.904 55.6991 101.924 55.6748 101.949 55.6574L102.752 55.192ZM102.274 56.9673L102.736 56.6995C102.848 56.6366 102.942 56.5467 103.01 56.4382C103.083 56.3102 103.118 56.1645 103.112 56.0175C103.112 55.8454 103.077 55.7466 103.01 55.7179C102.963 55.7064 102.914 55.7059 102.866 55.7164C102.819 55.7269 102.774 55.7481 102.736 55.7785L102.274 56.0462V56.9673Z" fill="#FAFAFA"/>
<path d="M104.852 53.978C104.884 53.9588 104.91 53.9588 104.926 53.978C104.946 54.0066 104.96 54.0391 104.967 54.0736L105.703 56.5659C105.703 56.5659 105.703 56.585 105.703 56.5946C105.703 56.6301 105.694 56.665 105.678 56.6966C105.666 56.7254 105.646 56.7499 105.62 56.7667L105.404 56.891C105.365 56.9133 105.337 56.9165 105.321 56.891C105.305 56.875 105.294 56.8552 105.289 56.8336L105.158 56.397L104.202 56.9452L104.075 57.5316C104.066 57.5633 104.054 57.5942 104.04 57.624C104.024 57.6629 103.994 57.6946 103.957 57.7132L103.74 57.8375C103.732 57.8443 103.722 57.848 103.711 57.848C103.701 57.848 103.691 57.8443 103.683 57.8375C103.666 57.8169 103.658 57.7906 103.66 57.7642C103.658 57.7526 103.658 57.7408 103.66 57.7292L104.393 54.3891C104.402 54.34 104.416 54.2919 104.435 54.2457C104.45 54.2122 104.476 54.1843 104.508 54.166L104.852 53.978ZM105.018 55.9093L104.699 54.7843L104.381 56.2886L105.018 55.9093Z" fill="#FAFAFA"/>
<path d="M106.819 52.7955C106.925 52.7282 107.047 52.6878 107.173 52.6776C107.261 52.6696 107.351 52.6897 107.428 52.735C107.497 52.7804 107.552 52.846 107.584 52.923C107.619 53.0015 107.638 53.0859 107.641 53.1716C107.643 53.207 107.636 53.2423 107.619 53.2736C107.608 53.3025 107.587 53.327 107.561 53.3437L107.351 53.4648C107.316 53.484 107.29 53.4871 107.275 53.4648C107.255 53.4518 107.238 53.4344 107.227 53.4138C107.214 53.3852 107.196 53.3594 107.173 53.338C107.15 53.3166 107.122 53.3002 107.093 53.2895C106.996 53.2757 106.897 53.3009 106.819 53.3597C106.767 53.393 106.718 53.4303 106.672 53.4712C106.625 53.5147 106.583 53.564 106.548 53.6178C106.514 53.6697 106.486 53.7253 106.465 53.7835C106.446 53.839 106.437 53.8971 106.436 53.9556C106.433 54.0093 106.442 54.063 106.465 54.1118C106.475 54.1289 106.489 54.1434 106.505 54.1539C106.522 54.1645 106.541 54.1708 106.561 54.1724C106.62 54.1826 106.68 54.1826 106.739 54.1724L107.016 54.1118C107.12 54.0812 107.227 54.0683 107.335 54.0736C107.412 54.0733 107.487 54.0979 107.549 54.1437C107.607 54.1928 107.649 54.2583 107.67 54.3317C107.701 54.435 107.715 54.5426 107.711 54.6504C107.711 54.7928 107.691 54.9345 107.651 55.0711C107.612 55.2117 107.555 55.3466 107.482 55.4727C107.405 55.6019 107.313 55.7217 107.208 55.8297C107.1 55.9408 106.978 56.0363 106.844 56.1133C106.746 56.1731 106.638 56.2152 106.526 56.2376C106.434 56.2553 106.339 56.2475 106.252 56.2153C106.172 56.1783 106.106 56.1169 106.063 56.04C106.011 55.9417 105.983 55.8325 105.981 55.7213C105.98 55.685 105.988 55.6491 106.003 55.6161C106.017 55.589 106.038 55.566 106.063 55.5492L106.274 55.4281C106.306 55.409 106.331 55.4026 106.35 55.4121C106.369 55.4217 106.382 55.4376 106.395 55.4663C106.408 55.4991 106.425 55.5302 106.446 55.5588C106.466 55.5865 106.494 55.6076 106.526 55.6193C106.568 55.629 106.611 55.629 106.653 55.6193C106.721 55.6034 106.785 55.5764 106.844 55.5396C106.906 55.5044 106.965 55.4639 107.02 55.4185C107.127 55.3337 107.212 55.2244 107.268 55.0998C107.294 55.036 107.307 54.9678 107.306 54.899C107.309 54.8741 107.307 54.8488 107.3 54.8246C107.293 54.8005 107.281 54.7781 107.265 54.7588C107.248 54.7436 107.227 54.7323 107.205 54.7257C107.183 54.7191 107.16 54.7174 107.138 54.7205C107.065 54.7235 106.993 54.7353 106.924 54.7556C106.841 54.7747 106.746 54.797 106.634 54.8162C106.549 54.8375 106.46 54.844 106.373 54.8353C106.304 54.8308 106.238 54.8027 106.188 54.7556C106.133 54.7016 106.094 54.6331 106.076 54.558C106.051 54.4473 106.039 54.3338 106.041 54.2202C106.041 54.0799 106.061 53.9403 106.102 53.8059C106.14 53.6675 106.195 53.5347 106.267 53.4107C106.336 53.2874 106.42 53.173 106.516 53.0696C106.603 52.9644 106.705 52.8721 106.819 52.7955Z" fill="#FAFAFA"/>
<path d="M108.913 51.5908C109.019 51.5214 109.141 51.4798 109.267 51.4697C109.356 51.4621 109.445 51.4822 109.522 51.5271C109.59 51.5737 109.643 51.639 109.675 51.7151C109.709 51.7936 109.729 51.8779 109.732 51.9637C109.736 51.9992 109.728 52.035 109.71 52.0657C109.699 52.0945 109.678 52.1191 109.652 52.1358L109.442 52.2569C109.41 52.276 109.385 52.2824 109.366 52.2569C109.345 52.2441 109.33 52.2251 109.321 52.2027C109.292 52.1468 109.243 52.1037 109.184 52.0816C109.136 52.0746 109.088 52.0773 109.041 52.0893C108.995 52.1013 108.951 52.1226 108.913 52.1517C108.86 52.1842 108.81 52.2216 108.763 52.2633C108.717 52.3069 108.676 52.3562 108.642 52.4099C108.607 52.4611 108.579 52.5168 108.559 52.5756C108.539 52.6309 108.529 52.689 108.527 52.7477C108.524 52.8014 108.533 52.8551 108.556 52.9039C108.566 52.921 108.58 52.9355 108.596 52.946C108.613 52.9566 108.632 52.9629 108.652 52.9645C108.711 52.9747 108.771 52.9747 108.83 52.9645L109.107 52.9039C109.211 52.875 109.319 52.8621 109.426 52.8657C109.503 52.865 109.578 52.8896 109.64 52.9358C109.698 52.9855 109.741 53.0507 109.764 53.1238C109.792 53.2276 109.805 53.335 109.802 53.4425C109.802 53.5849 109.782 53.7265 109.742 53.8632C109.703 54.0037 109.646 54.1387 109.573 54.2648C109.496 54.3953 109.404 54.5162 109.299 54.6249C109.191 54.7334 109.07 54.8276 108.938 54.9054C108.84 54.9649 108.732 55.007 108.62 55.0297C108.529 55.0471 108.435 55.0394 108.349 55.0074C108.268 54.9715 108.2 54.9099 108.158 54.8321C108.105 54.734 108.078 54.6246 108.078 54.5134C108.074 54.4779 108.082 54.4421 108.1 54.4114C108.111 54.3826 108.132 54.358 108.158 54.3413L108.368 54.2202C108.4 54.201 108.429 54.1947 108.444 54.2042C108.456 54.2093 108.465 54.2168 108.473 54.2261C108.481 54.2355 108.486 54.2466 108.489 54.2584C108.503 54.2906 108.521 54.3215 108.54 54.3508C108.561 54.3788 108.59 54.3999 108.623 54.4114C108.665 54.4211 108.708 54.4211 108.75 54.4114C108.818 54.3954 108.883 54.3685 108.942 54.3317C109.002 54.2957 109.059 54.2552 109.114 54.2106C109.17 54.1669 109.219 54.1154 109.26 54.0576C109.302 54.0026 109.336 53.9426 109.362 53.8791C109.388 53.8153 109.401 53.7471 109.401 53.6784C109.404 53.6534 109.401 53.6281 109.394 53.604C109.387 53.5799 109.375 53.5575 109.359 53.5381C109.342 53.5229 109.322 53.5117 109.3 53.5051C109.278 53.4985 109.254 53.4967 109.232 53.4999C109.161 53.5042 109.09 53.516 109.021 53.5349C108.938 53.5541 108.84 53.5764 108.731 53.5955C108.645 53.6168 108.555 53.6233 108.467 53.6146C108.398 53.611 108.332 53.5827 108.282 53.5349C108.228 53.4807 108.19 53.4121 108.174 53.3373C108.145 53.2281 108.132 53.1155 108.135 53.0027C108.136 52.8614 108.157 52.721 108.196 52.5852C108.235 52.4474 108.291 52.3147 108.362 52.19C108.431 52.066 108.515 51.9514 108.613 51.849C108.699 51.7479 108.8 51.6608 108.913 51.5908Z" fill="#FAFAFA"/>
<path d="M111.236 51.989L110.978 53.5157C110.97 53.5616 110.958 53.6065 110.94 53.6495C110.927 53.6839 110.904 53.7131 110.873 53.7324L110.631 53.8726C110.599 53.8917 110.577 53.8917 110.561 53.8726C110.539 53.8464 110.527 53.814 110.526 53.7802L110.143 51.0871C110.143 51.0871 110.143 51.0616 110.143 51.052C110.144 51.0166 110.153 50.9818 110.169 50.95C110.181 50.9217 110.201 50.8974 110.226 50.8799L110.446 50.7524C110.464 50.745 110.485 50.745 110.503 50.7524C110.522 50.7524 110.535 50.7779 110.541 50.8289L110.793 52.6424L111.013 51.2815C111.019 51.2476 111.028 51.2144 111.042 51.1827C111.054 51.1424 111.082 51.1083 111.118 51.0871L111.364 50.9437C111.399 50.9245 111.424 50.9277 111.44 50.9437C111.454 50.9639 111.464 50.9867 111.469 51.0106L111.692 52.1165L111.944 50.013C111.947 49.9716 111.959 49.9314 111.979 49.8951C111.994 49.8713 112.013 49.8507 112.036 49.8346L112.256 49.7071C112.264 49.7009 112.274 49.6975 112.285 49.6975C112.295 49.6975 112.305 49.7009 112.313 49.7071C112.323 49.7175 112.329 49.7297 112.334 49.7428C112.338 49.7559 112.34 49.7698 112.339 49.7836C112.34 49.7963 112.34 49.8091 112.339 49.8218L111.957 52.9547C111.95 53.0006 111.938 53.0455 111.921 53.0886C111.907 53.1226 111.882 53.1515 111.851 53.1714L111.606 53.3117C111.577 53.3276 111.555 53.3276 111.539 53.3117C111.523 53.2824 111.51 53.2514 111.501 53.2193L111.236 51.989Z" fill="#FAFAFA"/>
<path d="M112.728 50.6378C112.735 50.4611 112.756 50.2853 112.791 50.112C112.828 49.9426 112.884 49.7779 112.957 49.6212C113.027 49.4687 113.117 49.3262 113.225 49.1973C113.334 49.0694 113.464 48.9615 113.611 48.8786C113.723 48.8024 113.854 48.7593 113.99 48.7543C114.091 48.7554 114.188 48.7953 114.261 48.8658C114.338 48.9526 114.394 49.0563 114.423 49.1686C114.464 49.315 114.487 49.466 114.49 49.618C114.49 49.6753 114.49 49.7391 114.49 49.8092C114.49 49.8793 114.49 49.9526 114.49 50.0291C114.49 50.1056 114.49 50.1789 114.49 50.249C114.49 50.3191 114.49 50.3861 114.49 50.4466C114.483 50.6223 114.462 50.7971 114.426 50.9693C114.39 51.1382 114.335 51.3027 114.264 51.4601C114.191 51.6121 114.1 51.7544 113.993 51.884C113.884 52.0107 113.755 52.1184 113.611 52.2027C113.496 52.2783 113.362 52.3213 113.225 52.327C113.175 52.328 113.126 52.3189 113.08 52.3003C113.034 52.2817 112.992 52.2539 112.957 52.2187C112.874 52.1294 112.817 52.0192 112.791 51.8999C112.754 51.753 112.732 51.6023 112.728 51.4506C112.728 51.3932 112.728 51.3294 112.728 51.2593C112.728 51.1892 112.728 51.1159 112.728 51.0394C112.728 50.9629 112.728 50.8928 112.728 50.8195C112.728 50.7462 112.725 50.6952 112.728 50.6378ZM114.085 49.8761C114.093 49.7982 114.084 49.7196 114.06 49.6451C114.036 49.5706 113.997 49.5017 113.945 49.4427C113.862 49.3694 113.748 49.3726 113.611 49.4427C113.462 49.5301 113.344 49.6615 113.273 49.8188C113.182 50.0046 113.134 50.2081 113.133 50.4148C113.133 50.5327 113.133 50.6633 113.133 50.8068C113.133 50.9502 113.133 51.0777 113.133 51.1924C113.125 51.2704 113.134 51.349 113.158 51.4235C113.182 51.498 113.221 51.5668 113.273 51.6259C113.356 51.696 113.47 51.6896 113.611 51.6099C113.757 51.5219 113.873 51.392 113.945 51.237C114.036 51.0524 114.084 50.8498 114.085 50.6442C114.085 50.5231 114.085 50.3924 114.085 50.249C114.085 50.1056 114.089 49.9909 114.085 49.8761Z" fill="#FAFAFA"/>
<path d="M115.88 47.6068C116.132 47.4634 116.32 47.4411 116.45 47.5462C116.528 47.6316 116.585 47.733 116.619 47.8432C116.653 47.9534 116.661 48.0697 116.645 48.1837C116.647 48.4001 116.614 48.6156 116.546 48.8211C116.481 49.0125 116.381 49.1899 116.25 49.3438L116.664 50.2457C116.665 50.2606 116.665 50.2755 116.664 50.2903C116.664 50.3191 116.658 50.3474 116.645 50.3732C116.636 50.3963 116.62 50.4163 116.6 50.4306L116.345 50.5772C116.304 50.5995 116.275 50.6027 116.256 50.5772C116.239 50.5604 116.225 50.5411 116.215 50.5198L115.823 49.6689L115.424 49.8983V50.9756C115.424 51.0108 115.417 51.0456 115.402 51.0775C115.389 51.1052 115.369 51.1293 115.344 51.1477L115.102 51.2879C115.094 51.2946 115.084 51.2983 115.074 51.2983C115.063 51.2983 115.053 51.2946 115.045 51.2879C115.036 51.2781 115.029 51.2666 115.024 51.2539C115.02 51.2413 115.018 51.2279 115.019 51.2146V48.2347C115.02 48.1992 115.029 48.1644 115.045 48.1327C115.056 48.1038 115.076 48.0793 115.102 48.0626L115.88 47.6068ZM115.431 49.3215L115.88 49.0792C115.99 49.0179 116.084 48.9317 116.154 48.8275C116.228 48.7046 116.263 48.5626 116.256 48.4195C116.256 48.2474 116.221 48.1518 116.154 48.1327C116.057 48.1195 115.959 48.1446 115.88 48.2028L115.446 48.4514L115.431 49.3215Z" fill="#FAFAFA"/>
<path d="M118.015 46.3797C118.131 46.3042 118.263 46.2583 118.401 46.2459C118.5 46.2422 118.598 46.2776 118.672 46.3447C118.756 46.4334 118.814 46.5437 118.84 46.6634C118.883 46.8214 118.907 46.9841 118.911 47.1478C118.911 47.3709 118.911 47.6004 118.911 47.833C118.904 48.0228 118.881 48.2116 118.84 48.3972C118.804 48.5696 118.748 48.7374 118.675 48.8975C118.604 49.0446 118.514 49.1817 118.407 49.3055C118.301 49.4322 118.173 49.5399 118.031 49.6242L117.276 50.0353C117.268 50.0421 117.257 50.0458 117.247 50.0458C117.236 50.0458 117.226 50.0421 117.218 50.0353C117.209 50.0257 117.202 50.0141 117.197 50.0015C117.193 49.9888 117.191 49.9754 117.193 49.962V46.9821C117.194 46.9466 117.202 46.9118 117.218 46.8801C117.229 46.8513 117.25 46.8267 117.276 46.81L118.015 46.3797ZM118.506 47.3709C118.504 47.2846 118.492 47.1989 118.468 47.1159C118.453 47.0532 118.421 46.9958 118.375 46.9502C118.355 46.9302 118.331 46.9145 118.305 46.9041C118.279 46.8937 118.25 46.8888 118.222 46.8897C118.142 46.895 118.065 46.9214 117.999 46.9661L117.597 47.1956V49.2736L118.015 49.0346C118.096 48.9875 118.168 48.9272 118.229 48.8561C118.288 48.7862 118.338 48.7091 118.378 48.6266C118.418 48.5388 118.448 48.4469 118.468 48.3525C118.49 48.2541 118.503 48.1538 118.506 48.0529C118.515 47.8203 118.515 47.594 118.506 47.3709Z" fill="#FAFAFA"/>
<path d="M74.2499 0.122156C74.8 0.244566 75.3301 0.444142 75.8243 0.714957C76.2976 0.969377 76.7217 1.3061 77.0769 1.70933C77.4166 2.09722 77.6688 2.55378 77.8163 3.04791C77.9667 3.57685 77.9777 4.13571 77.8482 4.67015C77.7627 5.09387 77.5948 5.49669 77.3541 5.85575C77.1344 6.16278 76.8726 6.43743 76.5765 6.67164C76.2857 6.89746 75.9753 7.09691 75.6491 7.26763L74.7312 7.75526C74.4547 7.89947 74.1922 8.06912 73.9471 8.26201C73.7254 8.43207 73.5555 8.66051 73.4563 8.92174C73.4078 9.04108 73.3273 9.14473 73.2237 9.22132C73.1747 9.25941 73.1176 9.2858 73.0569 9.29851C72.9961 9.31121 72.9333 9.30988 72.8731 9.29463L71.5218 8.99504C71.4567 8.9814 71.395 8.95492 71.3403 8.91716C71.2855 8.8794 71.2389 8.83112 71.2031 8.77513C71.1649 8.72308 71.1395 8.66278 71.129 8.5991C71.1185 8.53543 71.1231 8.47017 71.1425 8.40861C71.2513 7.99011 71.4431 7.59776 71.7066 7.25488C71.947 6.95159 72.2255 6.68058 72.5353 6.44855C72.837 6.22765 73.1569 6.03255 73.4914 5.86531C73.8101 5.70277 74.1288 5.5466 74.4061 5.39043C74.664 5.25179 74.9065 5.0862 75.1296 4.89643C75.3252 4.73261 75.4609 4.50837 75.5152 4.25901C75.5659 4.04247 75.5634 3.81688 75.5079 3.60153C75.4524 3.38618 75.3455 3.18747 75.1965 3.02242C74.8238 2.61552 74.3257 2.34512 73.7814 2.25433C72.7743 2.03123 71.9244 2.37012 71.2317 3.27101C71.1649 3.36935 71.0806 3.45467 70.9831 3.52279C70.8731 3.57732 70.7461 3.58648 70.6294 3.54829L69.192 3.22958C69.0895 3.20977 68.9989 3.15019 68.9402 3.06385C68.9088 3.01772 68.8878 2.96538 68.8784 2.91039C68.8691 2.8554 68.8717 2.79904 68.886 2.74514C69.0082 2.30227 69.2356 1.89552 69.5489 1.55954C69.9023 1.1699 70.3221 0.846158 70.7887 0.603409C71.299 0.336457 71.8489 0.153507 72.4173 0.0616019C73.0263 -0.0374564 73.6488 -0.0168886 74.2499 0.122156ZM72.7233 10.3782C72.8497 10.4079 72.9595 10.4859 73.0292 10.5955C73.0989 10.7051 73.1229 10.8376 73.0962 10.9647L72.752 12.5263C72.7403 12.5917 72.715 12.6539 72.6777 12.7088C72.6403 12.7638 72.5918 12.8102 72.5353 12.8451C72.4819 12.8818 72.4215 12.9071 72.3578 12.9192C72.2941 12.9312 72.2287 12.9299 72.1656 12.9152L70.623 12.5614C70.5574 12.5503 70.495 12.5253 70.44 12.4879C70.385 12.4504 70.3387 12.4016 70.3043 12.3447C70.2686 12.2908 70.2442 12.2303 70.2327 12.1667C70.2212 12.1032 70.2228 12.0379 70.2374 11.975L70.5848 10.4133C70.6145 10.2867 70.6923 10.1766 70.8018 10.1064C70.9112 10.0362 71.0437 10.0114 71.1712 10.0372L72.7233 10.3782Z" fill="#1C1C1C"/>
<path d="M75.9519 15.0727C76.3357 15.0111 76.7262 15.0036 77.112 15.0504C77.4806 15.0942 77.8387 15.202 78.1702 15.3691C78.4858 15.5328 78.7637 15.7608 78.986 16.0384C79.1859 16.31 79.3266 16.6205 79.3991 16.9499C79.4716 17.2793 79.4742 17.6202 79.4067 17.9506C79.346 18.2047 79.2483 18.4485 79.1167 18.6741C78.9899 18.8936 78.8426 19.1006 78.6769 19.2924C78.5144 19.4836 78.3582 19.6653 78.2148 19.8406C78.0744 20.0039 77.9495 20.18 77.8419 20.3665C77.7409 20.5299 77.6899 20.7194 77.6953 20.9115C77.6925 21.0012 77.6673 21.0889 77.622 21.1664C77.5989 21.2022 77.5685 21.2326 77.5328 21.2557C77.4971 21.2787 77.4569 21.2939 77.4148 21.3003L76.4587 21.4533C76.414 21.4614 76.3681 21.4605 76.3238 21.4506C76.2795 21.4408 76.2376 21.4222 76.2005 21.3959C76.1629 21.3722 76.1314 21.3399 76.1087 21.3017C76.0859 21.2635 76.0726 21.2204 76.0699 21.176C76.0298 20.8794 76.0515 20.5778 76.1336 20.29C76.2085 20.0352 76.3156 19.791 76.4523 19.5633C76.5863 19.3448 76.7399 19.1389 76.9112 18.9482C77.0802 18.757 77.23 18.5785 77.3766 18.4064C77.5074 18.2527 77.6208 18.0849 77.7144 17.906C77.7973 17.7521 77.8276 17.5752 77.8004 17.4025C77.7765 17.2504 77.7161 17.1064 77.6246 16.9827C77.533 16.8589 77.413 16.7591 77.2746 16.6917C76.932 16.5262 76.5441 16.4791 76.1718 16.5579C75.8348 16.6072 75.5212 16.7595 75.2741 16.994C75.0271 17.2285 74.8586 17.5337 74.7918 17.8678C74.7732 17.9481 74.7408 18.0247 74.6962 18.0941C74.6394 18.1546 74.5622 18.192 74.4795 18.1992L73.4724 18.3618C73.4016 18.3753 73.3283 18.3604 73.2684 18.3203C73.2377 18.2993 73.2119 18.2719 73.1926 18.24C73.1734 18.2081 73.1612 18.1725 73.1568 18.1355C73.1269 17.8192 73.1762 17.5005 73.3003 17.208C73.4263 16.8678 73.6119 16.5526 73.8484 16.2774C74.1077 15.9761 74.4132 15.7179 74.7536 15.5125C75.1208 15.2898 75.5278 15.1404 75.9519 15.0727ZM77.5965 22.0365C77.6404 22.0295 77.6852 22.0313 77.7284 22.0417C77.7716 22.0521 77.8123 22.0709 77.8483 22.0971C77.8858 22.1217 77.9177 22.1541 77.9419 22.192C77.9661 22.2299 77.9819 22.2725 77.9885 22.317L78.167 23.4101C78.1808 23.4988 78.1591 23.5894 78.1066 23.6622C78.0541 23.7349 77.975 23.7841 77.8865 23.799L76.8188 23.9743C76.7302 23.988 76.6397 23.9662 76.567 23.9137C76.5301 23.8887 76.4988 23.8562 76.4752 23.8183C76.4516 23.7804 76.4362 23.738 76.43 23.6938L76.2515 22.6006C76.2434 22.5567 76.2446 22.5117 76.2551 22.4683C76.2655 22.4249 76.2849 22.3842 76.3121 22.3488C76.3371 22.3119 76.3696 22.2806 76.4075 22.257C76.4454 22.2333 76.4878 22.218 76.532 22.2118L77.5965 22.0365Z" fill="#1C1C1C"/>
<g opacity="0.2">
<path d="M75.9519 15.0727C76.3357 15.0111 76.7262 15.0036 77.112 15.0504C77.4806 15.0942 77.8387 15.202 78.1702 15.3691C78.4858 15.5328 78.7637 15.7608 78.986 16.0384C79.1859 16.31 79.3266 16.6205 79.3991 16.9499C79.4716 17.2793 79.4742 17.6202 79.4067 17.9506C79.346 18.2047 79.2483 18.4485 79.1167 18.6741C78.9899 18.8936 78.8426 19.1006 78.6769 19.2924C78.5144 19.4836 78.3582 19.6653 78.2148 19.8406C78.0744 20.0039 77.9495 20.18 77.8419 20.3665C77.7409 20.5299 77.6899 20.7194 77.6953 20.9115C77.6925 21.0012 77.6673 21.0889 77.622 21.1664C77.5989 21.2022 77.5685 21.2326 77.5328 21.2557C77.4971 21.2787 77.4569 21.2939 77.4148 21.3003L76.4587 21.4533C76.414 21.4614 76.3681 21.4605 76.3238 21.4506C76.2795 21.4408 76.2376 21.4222 76.2005 21.3959C76.1629 21.3722 76.1314 21.3399 76.1087 21.3017C76.0859 21.2635 76.0726 21.2204 76.0699 21.176C76.0298 20.8794 76.0515 20.5778 76.1336 20.29C76.2085 20.0352 76.3156 19.791 76.4523 19.5633C76.5863 19.3448 76.7399 19.1389 76.9112 18.9482C77.0802 18.757 77.23 18.5785 77.3766 18.4064C77.5074 18.2527 77.6208 18.0849 77.7144 17.906C77.7973 17.7521 77.8276 17.5752 77.8004 17.4025C77.7765 17.2504 77.7161 17.1064 77.6246 16.9827C77.533 16.8589 77.413 16.7591 77.2746 16.6917C76.932 16.5262 76.5441 16.4791 76.1718 16.5579C75.8348 16.6072 75.5212 16.7595 75.2741 16.994C75.0271 17.2285 74.8586 17.5337 74.7918 17.8678C74.7732 17.9481 74.7408 18.0247 74.6962 18.0941C74.6394 18.1546 74.5622 18.192 74.4795 18.1992L73.4724 18.3618C73.4016 18.3753 73.3283 18.3604 73.2684 18.3203C73.2377 18.2993 73.2119 18.2719 73.1926 18.24C73.1734 18.2081 73.1612 18.1725 73.1568 18.1355C73.1269 17.8192 73.1762 17.5005 73.3003 17.208C73.4263 16.8678 73.6119 16.5526 73.8484 16.2774C74.1077 15.9761 74.4132 15.7179 74.7536 15.5125C75.1208 15.2898 75.5278 15.1404 75.9519 15.0727ZM77.5965 22.0365C77.6404 22.0295 77.6852 22.0313 77.7284 22.0417C77.7716 22.0521 77.8123 22.0709 77.8483 22.0971C77.8858 22.1217 77.9177 22.1541 77.9419 22.192C77.9661 22.2299 77.9819 22.2725 77.9885 22.317L78.167 23.4101C78.1808 23.4988 78.1591 23.5894 78.1066 23.6622C78.0541 23.7349 77.975 23.7841 77.8865 23.799L76.8188 23.9743C76.7302 23.988 76.6397 23.9662 76.567 23.9137C76.5301 23.8887 76.4988 23.8562 76.4752 23.8183C76.4516 23.7804 76.4362 23.738 76.43 23.6938L76.2515 22.6006C76.2434 22.5567 76.2446 22.5117 76.2551 22.4683C76.2655 22.4249 76.2849 22.3842 76.3121 22.3488C76.3371 22.3119 76.3696 22.2806 76.4075 22.257C76.4454 22.2333 76.4878 22.218 76.532 22.2118L77.5965 22.0365Z" fill="black"/>
</g>
<path d="M84.9651 16.7906C85.0085 16.8208 85.0454 16.8596 85.0733 16.9045C85.1013 16.9495 85.1198 16.9996 85.1276 17.052C85.1378 17.1038 85.1371 17.1572 85.1256 17.2088C85.114 17.2603 85.092 17.3089 85.0607 17.3515L84.3022 18.4192C84.272 18.4627 84.2332 18.4995 84.1883 18.5275C84.1433 18.5554 84.0932 18.5739 84.0408 18.5818C83.989 18.5919 83.9356 18.5912 83.884 18.5797C83.8325 18.5682 83.7839 18.5461 83.7413 18.5148L82.6959 17.7722C82.6523 17.7424 82.6156 17.7037 82.5882 17.6587C82.5607 17.6136 82.5431 17.5633 82.5365 17.5109C82.5264 17.4591 82.5271 17.4057 82.5386 17.3541C82.5501 17.3025 82.5722 17.2539 82.6035 17.2113L83.3715 16.1436C83.4337 16.0571 83.5274 15.9985 83.6324 15.9806C83.7374 15.9627 83.8452 15.9869 83.9325 16.048L84.9651 16.7906ZM89.376 9.55909C89.7572 9.82622 90.0966 10.1484 90.3832 10.5152C90.6627 10.8564 90.8786 11.245 91.0206 11.6626C91.1529 12.0627 91.1974 12.4866 91.1513 12.9055C91.0972 13.3523 90.9281 13.7773 90.6604 14.139C90.4616 14.4314 90.2058 14.6807 89.9083 14.872C89.6465 15.0361 89.3619 15.1607 89.0637 15.2417C88.7732 15.3176 88.4768 15.3688 88.1777 15.3947L87.3299 15.4712C87.0757 15.4915 86.8239 15.5352 86.5778 15.6018C86.3507 15.6534 86.1429 15.7683 85.9786 15.9333C85.9044 16.0087 85.8105 16.0617 85.7077 16.0863C85.6588 16.1003 85.6072 16.1024 85.5573 16.0924C85.5074 16.0825 85.4606 16.0607 85.4209 16.0289L84.4966 15.3724C84.4083 15.3093 84.3478 15.2145 84.3277 15.1078C84.3158 15.0561 84.3162 15.0024 84.3289 14.9509C84.3417 14.8994 84.3664 14.8516 84.401 14.8114C84.6169 14.5313 84.8867 14.2972 85.1946 14.123C85.4717 13.9717 85.7674 13.857 86.0742 13.782C86.3703 13.7102 86.6721 13.6643 86.9762 13.645C87.2757 13.6258 87.5562 13.6035 87.8176 13.578C88.0567 13.5569 88.2929 13.5099 88.5219 13.4378C88.7222 13.3711 88.8948 13.24 89.0127 13.0649C89.1192 12.9171 89.1885 12.7457 89.2146 12.5654C89.2407 12.385 89.2228 12.201 89.1625 12.0291C89.0117 11.6043 88.7235 11.242 88.3434 10.9997C87.655 10.5088 86.9039 10.4929 86.0901 10.9519C86.0083 11.004 85.9175 11.0407 85.8224 11.0602C85.7729 11.0637 85.7232 11.0573 85.6761 11.0414C85.6291 11.0255 85.5857 11.0005 85.5483 10.9678L84.5667 10.2698C84.5312 10.2462 84.5007 10.2157 84.4772 10.1801C84.4536 10.1445 84.4375 10.1046 84.4297 10.0627C84.422 10.0193 84.4235 9.9748 84.4339 9.93201C84.4443 9.88923 84.4635 9.84906 84.4902 9.81406C84.7218 9.51731 85.0228 9.282 85.3667 9.12883C85.7573 8.95186 86.1757 8.84402 86.6033 8.81012C87.0737 8.77081 87.5473 8.80849 88.0056 8.92167C88.5003 9.04086 88.9662 9.25757 89.376 9.55909Z" fill="#1C1C1C"/>
<g opacity="0.6">
<path d="M84.9651 16.7906C85.0085 16.8208 85.0454 16.8596 85.0733 16.9045C85.1013 16.9495 85.1198 16.9996 85.1276 17.052C85.1378 17.1038 85.1371 17.1572 85.1256 17.2088C85.114 17.2603 85.092 17.3089 85.0607 17.3515L84.3022 18.4192C84.272 18.4627 84.2332 18.4995 84.1883 18.5275C84.1433 18.5554 84.0932 18.5739 84.0408 18.5818C83.989 18.5919 83.9356 18.5912 83.884 18.5797C83.8325 18.5682 83.7839 18.5461 83.7413 18.5148L82.6959 17.7722C82.6523 17.7424 82.6156 17.7037 82.5882 17.6587C82.5607 17.6136 82.5431 17.5633 82.5365 17.5109C82.5264 17.4591 82.5271 17.4057 82.5386 17.3541C82.5501 17.3025 82.5722 17.2539 82.6035 17.2113L83.3715 16.1436C83.4337 16.0571 83.5274 15.9985 83.6324 15.9806C83.7374 15.9627 83.8452 15.9869 83.9325 16.048L84.9651 16.7906ZM89.376 9.55909C89.7572 9.82622 90.0966 10.1484 90.3832 10.5152C90.6627 10.8564 90.8786 11.245 91.0206 11.6626C91.1529 12.0627 91.1974 12.4866 91.1513 12.9055C91.0972 13.3523 90.9281 13.7773 90.6604 14.139C90.4616 14.4314 90.2058 14.6807 89.9083 14.872C89.6465 15.0361 89.3619 15.1607 89.0637 15.2417C88.7732 15.3176 88.4768 15.3688 88.1777 15.3947L87.3299 15.4712C87.0757 15.4915 86.8239 15.5352 86.5778 15.6018C86.3507 15.6534 86.1429 15.7683 85.9786 15.9333C85.9044 16.0087 85.8105 16.0617 85.7077 16.0863C85.6588 16.1003 85.6072 16.1024 85.5573 16.0924C85.5074 16.0825 85.4606 16.0607 85.4209 16.0289L84.4966 15.3724C84.4083 15.3093 84.3478 15.2145 84.3277 15.1078C84.3158 15.0561 84.3162 15.0024 84.3289 14.9509C84.3417 14.8994 84.3664 14.8516 84.401 14.8114C84.6169 14.5313 84.8867 14.2972 85.1946 14.123C85.4717 13.9717 85.7674 13.857 86.0742 13.782C86.3703 13.7102 86.6721 13.6643 86.9762 13.645C87.2757 13.6258 87.5562 13.6035 87.8176 13.578C88.0567 13.5569 88.2929 13.5099 88.5219 13.4378C88.7222 13.3711 88.8948 13.24 89.0127 13.0649C89.1192 12.9171 89.1885 12.7457 89.2146 12.5654C89.2407 12.385 89.2228 12.201 89.1625 12.0291C89.0117 11.6043 88.7235 11.242 88.3434 10.9997C87.655 10.5088 86.9039 10.4929 86.0901 10.9519C86.0083 11.004 85.9175 11.0407 85.8224 11.0602C85.7729 11.0637 85.7232 11.0573 85.6761 11.0414C85.6291 11.0255 85.5857 11.0005 85.5483 10.9678L84.5667 10.2698C84.5312 10.2462 84.5007 10.2157 84.4772 10.1801C84.4536 10.1445 84.4375 10.1046 84.4297 10.0627C84.422 10.0193 84.4235 9.9748 84.4339 9.93201C84.4443 9.88923 84.4635 9.84906 84.4902 9.81406C84.7218 9.51731 85.0228 9.282 85.3667 9.12883C85.7573 8.95186 86.1757 8.84402 86.6033 8.81012C87.0737 8.77081 87.5473 8.80849 88.0056 8.92167C88.5003 9.04086 88.9662 9.25757 89.376 9.55909Z" fill="white"/>
</g>
<path d="M70.4176 114.108L72.9745 113.013L71.1271 106.804L68.5702 107.896L70.4176 114.108Z" fill="#FFC3BD"/>
<path d="M49.3326 115.365H52.1128L52.2568 108.929H49.4767L49.3326 115.365Z" fill="#FFC3BD"/>
<path d="M52.4907 115.044H49.102C49.0466 115.044 48.993 115.063 48.9498 115.098C48.9067 115.133 48.8765 115.181 48.8643 115.235L48.3169 117.705C48.3038 117.765 48.3046 117.828 48.3191 117.888C48.3336 117.947 48.3614 118.003 48.4006 118.051C48.4398 118.098 48.4893 118.136 48.5452 118.162C48.6012 118.187 48.6623 118.2 48.7239 118.199C49.8042 118.199 50.6109 118.116 51.983 118.116C52.8257 118.116 55.3753 118.202 56.5421 118.202C57.7089 118.202 57.8602 117.05 57.3848 116.945C55.2241 116.477 53.6287 115.829 52.9409 115.213C52.8172 115.103 52.6566 115.042 52.4907 115.044Z" fill="#263238"/>
<path d="M72.9133 112.631L70.1692 113.928C70.1197 113.952 70.0798 113.992 70.0557 114.042C70.0316 114.091 70.0246 114.148 70.0359 114.201L70.5977 116.672C70.611 116.732 70.6377 116.787 70.6758 116.835C70.7138 116.883 70.7623 116.922 70.8174 116.948C70.8726 116.974 70.933 116.988 70.9941 116.987C71.0553 116.987 71.1155 116.973 71.1703 116.946C72.1534 116.463 73.5543 115.728 74.8003 115.145C76.2408 114.457 76.2984 114.457 78.0054 113.65C79.0354 113.164 78.8301 111.987 78.3655 112.095C76.2048 112.595 75.8195 112.793 73.6263 112.548C73.3856 112.51 73.1387 112.538 72.9133 112.631Z" fill="#263238"/>
<path d="M57.4894 27.1923L58.631 27.4768C59.0271 27.5704 59.4196 27.6533 59.8122 27.7289C60.568 27.8804 61.3314 27.9922 62.0989 28.0638C62.4355 28.092 62.7734 28.0992 63.1109 28.0854C63.333 28.0797 63.5539 28.0507 63.7699 27.999C63.8167 27.999 63.8131 27.999 63.7699 28.0386C63.704 28.1132 63.656 28.2019 63.6295 28.2979C63.6043 28.3987 63.6295 28.4455 63.6295 28.4239C63.6429 28.3562 63.6429 28.2864 63.6295 28.2187C63.4509 27.5918 63.1738 26.9974 62.8084 26.4577C62.3784 25.7842 61.9132 25.1339 61.4147 24.5094C60.392 23.2238 59.254 21.9345 58.1124 20.7029L59.416 19.0715C60.9542 20.0247 62.4008 21.1181 63.7375 22.3378C64.433 22.9707 65.0817 23.6531 65.6786 24.3797C66.3861 25.2063 66.9355 26.156 67.2991 27.1815C67.4129 27.5318 67.4842 27.8945 67.5116 28.2619C67.5451 28.7373 67.4839 29.2147 67.3315 29.6663C67.1529 30.1714 66.8552 30.626 66.4636 30.9916C66.139 31.2915 65.7666 31.5349 65.3617 31.7118C64.7657 31.9667 64.1341 32.1282 63.489 32.1908C62.9614 32.2445 62.4308 32.2613 61.9009 32.2412C60.9334 32.203 59.9703 32.091 59.0199 31.9063C58.5589 31.8199 58.1052 31.719 57.655 31.611C57.2049 31.503 56.7763 31.3877 56.283 31.2509L57.4894 27.1923Z" fill="#FFC3BD"/>
<path d="M53.6323 28.3625C55.0728 26.1369 62.8694 27.7755 62.8694 27.7755L63.3196 34.5098C61.2078 34.1975 59.0816 33.992 56.949 33.894C54.7487 33.7968 51.8245 31.1282 53.6323 28.3625Z" fill="#263238"/>
<path d="M58.5409 20.9729L55.9301 19.5756L58.4509 17.5878C58.8065 17.8107 59.1109 18.1062 59.3442 18.455C59.5776 18.8038 59.7346 19.1979 59.805 19.6117L58.5409 20.9729Z" fill="#FFC3BD"/>
<path d="M54.3384 18.1206L56.8844 16.5432L58.4654 17.5876L55.9301 19.5755L54.3384 18.1206Z" fill="#FFC3BD"/>
<path opacity="0.2" d="M71.1271 106.808L72.0778 110.006L69.521 111.101L68.5667 107.899L71.1271 106.808Z" fill="black"/>
<path opacity="0.2" d="M49.4767 108.929H52.2569L52.1813 112.25H49.4011L49.4767 108.929Z" fill="black"/>
<path d="M47.1143 34.445L43.7256 39.3319C43.5073 39.6421 43.3824 40.0082 43.3655 40.3871L43.099 46.8693C43.0799 47.3519 43.236 47.8251 43.5383 48.2017L45.0112 50.0312C45.2118 50.2743 45.4672 50.4664 45.7564 50.5916C46.0456 50.7168 46.3605 50.7716 46.675 50.7514L51.1297 50.5065C51.6396 50.4788 52.1193 50.2564 52.4698 49.8851C52.8203 49.5138 53.0148 49.022 53.0131 48.5114L52.9735 35.493C52.9732 35.2272 52.9195 34.9641 52.8159 34.7193C52.7122 34.4745 52.5606 34.253 52.37 34.0677C52.1794 33.8824 51.9535 33.7372 51.7059 33.6406C51.4583 33.544 51.1938 33.4979 50.928 33.5051L48.6881 33.5663C48.3752 33.579 48.0697 33.6652 47.7963 33.8178C47.5229 33.9705 47.2893 34.1854 47.1143 34.445Z" fill="#1C1C1C"/>
<path opacity="0.3" d="M47.1143 34.445L43.7256 39.3319C43.5073 39.6421 43.3824 40.0082 43.3655 40.3871L43.099 46.8693C43.0799 47.3519 43.236 47.8251 43.5383 48.2017L45.0112 50.0312C45.2118 50.2743 45.4672 50.4664 45.7564 50.5916C46.0456 50.7168 46.3605 50.7716 46.675 50.7514L51.1297 50.5065C51.6396 50.4788 52.1193 50.2564 52.4698 49.8851C52.8203 49.5138 53.0148 49.022 53.0131 48.5114L52.9735 35.493C52.9732 35.2272 52.9195 34.9641 52.8159 34.7193C52.7122 34.4745 52.5606 34.253 52.37 34.0677C52.1794 33.8824 51.9535 33.7372 51.7059 33.6406C51.4583 33.544 51.1938 33.4979 50.928 33.5051L48.6881 33.5663C48.3752 33.579 48.0697 33.6652 47.7963 33.8178C47.5229 33.9705 47.2893 34.1854 47.1143 34.445Z" fill="black"/>
<path d="M56.1371 25.8896L46.331 26.1584C45.2455 26.1882 44.3896 27.0923 44.4194 28.1778L44.4951 30.9425C44.5249 32.028 45.429 32.8839 46.5145 32.8542L56.3206 32.5854C57.4061 32.5556 58.262 31.6515 58.2322 30.566L58.1565 27.8013C58.1267 26.7158 57.2226 25.8599 56.1371 25.8896Z" fill="#1C1C1C"/>
<path opacity="0.3" d="M56.1371 25.8896L46.331 26.1584C45.2455 26.1882 44.3896 27.0923 44.4194 28.1778L44.4951 30.9425C44.5249 32.028 45.429 32.8839 46.5145 32.8542L56.3206 32.5854C57.4061 32.5556 58.262 31.6515 58.2322 30.566L58.1565 27.8013C58.1267 26.7158 57.2226 25.8599 56.1371 25.8896Z" fill="black"/>
<path d="M44.0676 27.97C44.8203 30.9867 45.3487 34.0549 45.6486 37.1495C45.8682 39.3103 45.9835 41.363 46.0447 43.232C46.1852 47.6039 46.0231 50.9314 46.1311 52.0622L60.979 51.342C61.4183 29.4969 59.6249 27.3542 59.6249 27.3542C58.4565 27.1117 57.2743 26.9409 56.0849 26.8428C55.8448 26.8212 55.5892 26.8068 55.3179 26.7996C53.2093 26.7804 51.1014 26.8838 49.0049 27.1093C48.6088 27.1489 48.2054 27.1994 47.8129 27.2534C45.8214 27.5235 44.0676 27.97 44.0676 27.97Z" fill="#263238"/>
<path d="M58.9477 34.6358C55.362 33.8373 51.62 34.1192 48.1945 35.4461L47.892 34.4053C51.5023 33.0072 55.446 32.7102 59.225 33.5518C59.1386 33.912 59.0414 34.2757 58.9477 34.6358Z" fill="#1C1C1C"/>
<path opacity="0.2" d="M47.73 32.0466C47.7112 34.3256 47.0279 36.5497 45.7637 38.446C45.7313 38.0211 45.6917 37.5925 45.6485 37.1604C45.4828 35.5398 45.2595 33.858 44.957 32.1583L47.73 32.0466Z" fill="black"/>
<path d="M56.499 26.868L56.0849 26.832C55.8328 26.8104 55.5771 26.796 55.3214 26.7816C53.2128 26.7653 51.1051 26.8699 49.0085 27.0949C48.6087 27.1345 48.209 27.1849 47.8165 27.2389H47.7913L48.0758 27.6819C48.5151 28.3769 49.9196 30.0155 53.51 30.3396L53.8701 30.3684L54.169 30.1991C54.9397 29.7598 56.1893 28.6974 56.4702 27.5666C56.524 27.3377 56.5338 27.1006 56.499 26.868Z" fill="white"/>
<path d="M46.9737 15.7115C45.5728 15.0129 43.9775 17.026 44.4528 18.2828C44.8067 18.2152 45.1726 18.2493 45.5079 18.3813C45.8432 18.5132 46.1341 18.7376 46.3471 19.0282C46.3471 19.0282 45.4144 20.1734 45.9869 21.4195C47.1249 20.6992 48.2881 21.6931 48.2881 21.6931C48.1517 22.0286 48.1197 22.3974 48.1961 22.7514C48.2726 23.1054 48.454 23.4281 48.7167 23.6774C49.0192 22.8635 50.1572 23.5982 50.6181 22.9572C51.3708 21.9092 50.5029 20.7964 50.5029 20.7964L50.1896 20.2779C49.9591 17.793 49.1524 16.7955 46.9737 15.7115Z" fill="#263238"/>
<path d="M49.275 19.9573C49.7755 21.9704 50.3553 25.6688 49.0049 27.0949C49.5667 27.9844 51.0108 29.0072 53.6037 29.2556C54.5256 28.7335 55.7392 27.455 55.3142 26.7996C53.0239 26.3711 52.9986 24.6893 53.3156 23.0903L49.275 19.9573Z" fill="#FFC3BD"/>
<path d="M56.3981 26.9401C56.5601 28.2905 57.7377 37.2684 60.8312 41.1073C60.8551 41.1357 60.887 41.1562 60.9228 41.1661C60.9586 41.176 60.9965 41.1748 61.0316 41.1628C61.0667 41.1507 61.0973 41.1282 61.1194 41.0984C61.1414 41.0686 61.154 41.0328 61.1553 40.9957C61.1553 40.207 61.1553 39.4616 61.1553 39.3283C61.1572 39.314 61.1572 39.2994 61.1553 39.2851C61.0473 38.8926 59.4699 32.9361 59.2575 27.2138C59.2566 27.183 59.2479 27.1529 59.2322 27.1264C59.2164 27.0999 59.1941 27.0779 59.1674 27.0625C58.3353 26.7435 57.4375 26.6334 56.5529 26.742C56.5297 26.7447 56.5072 26.752 56.4868 26.7634C56.4664 26.7748 56.4485 26.7902 56.4341 26.8086C56.4196 26.8271 56.409 26.8482 56.4029 26.8708C56.3967 26.8933 56.3951 26.9169 56.3981 26.9401Z" fill="#1C1C1C"/>
<path opacity="0.2" d="M50.9278 21.2285L53.3154 23.0723C53.2366 23.4445 53.1908 23.8229 53.1785 24.2031C52.307 24.1203 51.0718 23.2308 50.935 22.3269C50.865 21.9643 50.8626 21.592 50.9278 21.2285Z" fill="black"/>
<path d="M54.2483 16.6334C54.9937 16.7091 56.0849 14.2206 54.8425 12.4416C53.6937 10.8031 51.4285 12.5028 51.144 12.8017C50.8595 13.1006 51.5725 16.3561 54.2483 16.6334Z" fill="#263238"/>
<path d="M47.9784 17.2564C48.6699 19.9249 48.94 21.5239 50.5749 22.6582C53.0346 24.3472 56.1316 22.4566 56.2505 19.6332C56.3549 17.0943 55.2061 13.151 52.3503 12.5928C51.7229 12.4676 51.0738 12.5044 50.4645 12.6998C49.8552 12.8952 49.3058 13.2427 48.8682 13.7095C48.4306 14.1763 48.1193 14.747 47.9636 15.3676C47.8079 15.9882 47.813 16.6383 47.9784 17.2564Z" fill="#FFC3BD"/>
<path d="M49.1599 19.3811C49.9089 19.4567 50.1646 16.0499 49.7541 15.1892C49.3435 14.3286 46.2717 15.1892 46.0592 15.5494C44.8708 17.5877 46.4877 19.1038 49.1599 19.3811Z" fill="#263238"/>
<path d="M55.1883 11.0767C55.0802 10.0468 53.8666 9.4958 52.5702 9.63625C52.509 10.3961 51.2593 10.9687 51.2593 10.9687C50.8805 10.6672 50.4393 10.4539 49.9678 10.3443C49.4962 10.2346 49.0062 10.2314 48.5332 10.3349C48.6124 11.4873 47.5321 12.3732 47.5321 12.3732C47.5321 12.3732 46.4085 11.8942 45.2597 12.9674C46.1888 13.4067 44.6727 14.3755 45.519 15.4522C46.4769 16.673 48.1767 15.9816 48.1767 15.9816L48.8969 15.5999C52.4189 15.1893 55.48 13.7633 55.1883 11.0767Z" fill="#263238"/>
<path d="M54.9252 19.8241C54.3806 20.216 53.771 20.5086 53.1246 20.6884C53.1153 20.6911 53.1055 20.6917 53.096 20.6902C53.0864 20.6886 53.0774 20.6849 53.0694 20.6794C53.0615 20.6739 53.0549 20.6667 53.0501 20.6582C53.0453 20.6498 53.0425 20.6405 53.0418 20.6308C53.0412 20.6093 53.048 20.5883 53.0612 20.5712C53.0743 20.5541 53.0929 20.5421 53.1138 20.5372C53.73 20.3624 54.3112 20.0822 54.8316 19.7089C54.8463 19.6952 54.8656 19.6876 54.8856 19.6876C54.9057 19.6876 54.925 19.6952 54.9396 19.7089C54.9486 19.7162 54.9557 19.7257 54.96 19.7365C54.9643 19.7473 54.9658 19.759 54.9644 19.7705C54.963 19.782 54.9586 19.793 54.9518 19.8024C54.9449 19.8118 54.9358 19.8193 54.9252 19.8241Z" fill="#263238"/>
<path d="M47.3375 20.177C47.814 20.6808 48.4703 20.9759 49.1633 20.9981C50.0816 21.0197 50.3157 20.1446 49.8836 19.3955C49.4838 18.7185 48.5223 17.8974 47.6904 18.2323C46.8585 18.5672 46.7541 19.5504 47.3375 20.177Z" fill="#FFC3BD"/>
<path d="M66.8417 81.5671C65.3796 73.2122 60.9789 51.3168 60.9789 51.3168L51.2196 51.7993C51.2196 51.7993 57.9179 76.3453 59.8409 83.4613C61.764 90.5773 68.4839 110.928 68.4839 110.928L72.7369 108.918C72.7369 108.918 68.3614 90.2568 66.8417 81.5671Z" fill="#1C1C1C"/>
<path opacity="0.2" d="M55.1772 60.0533L53.8052 61.2994C54.9828 65.6208 56.3801 70.7562 57.5829 75.1713C57.9178 70.1872 57.3056 62.6966 55.1772 60.0533Z" fill="black"/>
<path d="M56.8844 51.5292C56.8844 51.5292 54.9289 74.7859 54.684 82.9283C54.4139 91.8413 53.5064 111.605 53.5064 111.605H48.4143C48.4143 111.605 47.6328 93.5447 47.4744 84.7793C47.2799 74.8759 46.1455 52.0622 46.1455 52.0622L56.8844 51.5292Z" fill="#1C1C1C"/>
<path d="M53.708 111.717H48.1189L47.8668 109.927L54.1618 109.808L53.708 111.717Z" fill="#263238"/>
<path d="M73.0396 108.904L68.2392 111.176L67.2092 109.563L72.6831 106.967L73.0396 108.904Z" fill="#263238"/>
<path d="M52.2245 17.1988C52.2677 17.4184 52.4189 17.5589 52.563 17.5589C52.707 17.5589 52.7899 17.332 52.7467 17.1123C52.7034 16.8926 52.5522 16.7522 52.4081 16.7522C52.2641 16.7522 52.1813 16.9935 52.2245 17.1988Z" fill="#263238"/>
<path d="M54.7128 16.727C54.756 16.9467 54.9073 17.0871 55.0513 17.0871C55.1954 17.0871 55.2746 16.8567 55.2314 16.637C55.1881 16.4173 55.0369 16.2769 54.8929 16.2769C54.7488 16.2769 54.6768 16.5073 54.7128 16.727Z" fill="#263238"/>
<path d="M53.9565 16.9897C54.3503 17.6116 54.8277 18.1763 55.3754 18.6679C55.0549 19.1073 54.3203 19.028 54.3203 19.028L53.9565 16.9897Z" fill="#ED847E"/>
<path d="M52.5809 15.9347C52.5577 15.9287 52.5334 15.9292 52.5105 15.9362C52.4876 15.9432 52.4671 15.9564 52.4513 15.9743C52.3442 16.0992 52.2091 16.197 52.057 16.2596C51.9049 16.3222 51.7401 16.3478 51.5761 16.3344C51.5419 16.3303 51.5073 16.3396 51.4798 16.3604C51.4522 16.3812 51.4338 16.4119 51.4285 16.4461C51.4254 16.4634 51.4259 16.4811 51.4299 16.4983C51.434 16.5154 51.4414 16.5315 51.4519 16.5456C51.4623 16.5598 51.4755 16.5717 51.4907 16.5806C51.5059 16.5894 51.5227 16.5951 51.5401 16.5973C51.7487 16.614 51.9582 16.5805 52.1511 16.4997C52.3441 16.4189 52.5149 16.2931 52.6493 16.1328C52.6619 16.121 52.6718 16.1067 52.6787 16.0909C52.6855 16.0752 52.689 16.0581 52.689 16.0409C52.689 16.0237 52.6855 16.0067 52.6787 15.9909C52.6718 15.9751 52.6619 15.9609 52.6493 15.9491C52.629 15.9363 52.6047 15.9312 52.5809 15.9347Z" fill="#263238"/>
<path d="M55.6417 14.7175C55.6673 14.7101 55.6899 14.695 55.7066 14.6743C55.7175 14.6606 55.7255 14.6449 55.7303 14.628C55.7351 14.6112 55.7366 14.5936 55.7346 14.5762C55.7326 14.5588 55.7272 14.542 55.7186 14.5267C55.7101 14.5114 55.6987 14.4979 55.685 14.487C55.5243 14.3532 55.3335 14.2603 55.129 14.2164C54.9245 14.1725 54.7124 14.1789 54.511 14.235C54.4784 14.2464 54.4515 14.2701 54.4361 14.301C54.4206 14.3319 54.4178 14.3677 54.4281 14.4006C54.4396 14.4332 54.4633 14.4601 54.4942 14.4755C54.5251 14.491 54.5608 14.4938 54.5938 14.4834C54.7545 14.4435 54.9223 14.4419 55.0837 14.4788C55.2451 14.5157 55.3956 14.5901 55.5229 14.6959C55.5399 14.7081 55.5593 14.7164 55.5799 14.7201C55.6004 14.7239 55.6216 14.723 55.6417 14.7175Z" fill="#263238"/>
<path d="M53.4091 115.53C53.5992 115.545 53.7887 115.494 53.9457 115.386C53.9976 115.343 54.0374 115.287 54.0614 115.224C54.0853 115.161 54.0926 115.093 54.0826 115.026C54.0831 114.987 54.0726 114.949 54.0521 114.916C54.0317 114.883 54.0023 114.856 53.9673 114.839C53.6612 114.68 52.7645 115.231 52.6637 115.296C52.6528 115.303 52.6441 115.312 52.6389 115.324C52.6338 115.336 52.6324 115.349 52.6349 115.361C52.6365 115.374 52.6418 115.385 52.6502 115.395C52.6585 115.405 52.6695 115.412 52.6817 115.415C52.9191 115.481 53.1631 115.519 53.4091 115.53ZM53.8233 114.954C53.8517 114.948 53.8813 114.948 53.9097 114.954C53.9229 114.962 53.9335 114.974 53.9404 114.988C53.9474 115.002 53.9505 115.018 53.9493 115.033C53.956 115.077 53.9512 115.122 53.9354 115.164C53.9197 115.206 53.8934 115.242 53.8593 115.271C53.5494 115.415 53.1956 115.433 52.8726 115.321C53.1632 115.139 53.4859 115.015 53.8233 114.954Z" fill="#1C1C1C"/>
<path d="M52.6998 115.429C52.709 115.433 52.7193 115.433 52.7286 115.429C53.0167 115.275 53.5749 114.666 53.5137 114.349C53.5044 114.3 53.4785 114.257 53.4404 114.225C53.4022 114.193 53.3543 114.176 53.3048 114.176C53.2548 114.17 53.2039 114.174 53.1555 114.188C53.1072 114.202 53.0623 114.226 53.0239 114.259C52.7034 114.526 52.635 115.339 52.6314 115.361C52.6311 115.373 52.634 115.384 52.6397 115.394C52.6454 115.404 52.6537 115.413 52.6638 115.419C52.6743 115.426 52.6869 115.43 52.6998 115.429ZM53.258 114.306H53.2904C53.3732 114.306 53.384 114.356 53.384 114.374C53.42 114.554 53.0671 115.015 52.779 115.231C52.7994 114.916 52.9135 114.614 53.1067 114.363C53.1487 114.327 53.2023 114.306 53.258 114.306Z" fill="#1C1C1C"/>
<path d="M73.3239 112.876C73.7668 112.765 74.5339 112.516 74.6923 112.156C74.7202 112.099 74.7326 112.036 74.7281 111.973C74.7237 111.909 74.7027 111.848 74.6671 111.796C74.6507 111.764 74.6261 111.736 74.5957 111.717C74.5654 111.697 74.5304 111.686 74.4943 111.684C74.1126 111.663 73.3419 112.646 73.2555 112.765C73.2475 112.776 73.2433 112.789 73.2433 112.802C73.2433 112.816 73.2475 112.829 73.2555 112.84C73.261 112.853 73.2708 112.864 73.2833 112.87C73.2957 112.877 73.3101 112.879 73.3239 112.876ZM74.4835 111.825C74.4975 111.826 74.5108 111.831 74.5222 111.839C74.5336 111.847 74.5426 111.859 74.5483 111.871C74.57 111.904 74.5833 111.941 74.5871 111.98C74.5909 112.019 74.585 112.059 74.5699 112.095C74.4799 112.307 74.0765 112.527 73.4895 112.696C73.8064 112.314 74.2602 111.839 74.4835 111.825Z" fill="#1C1C1C"/>
<path d="M73.3239 112.876C73.3323 112.876 73.3404 112.874 73.3479 112.87C73.3554 112.866 73.3619 112.861 73.3671 112.854C73.6084 112.574 73.9505 111.745 73.7705 111.482C73.7273 111.421 73.6408 111.363 73.4716 111.421C73.4092 111.443 73.3519 111.477 73.303 111.522C73.2541 111.566 73.2147 111.62 73.1871 111.68C72.9926 112.095 73.2447 112.804 73.2555 112.833C73.2595 112.844 73.2663 112.853 73.2751 112.861C73.2839 112.868 73.2945 112.874 73.3059 112.876H73.3239ZM73.5904 111.529C73.6039 111.527 73.6179 111.528 73.6306 111.533C73.6434 111.538 73.6544 111.547 73.6624 111.558C73.7705 111.716 73.5652 112.336 73.3419 112.667C73.2348 112.368 73.2235 112.044 73.3095 111.738C73.3279 111.693 73.3558 111.653 73.3912 111.62C73.4267 111.587 73.4688 111.562 73.5148 111.547C73.5388 111.537 73.5644 111.531 73.5904 111.529Z" fill="#1C1C1C"/>
<path d="M46.9774 32.1041L46.1743 33.2061C45.9006 33.5842 45.6341 33.9696 45.3712 34.3549C44.8419 35.1255 44.3341 35.907 43.8371 36.6885C43.3401 37.4699 42.89 38.273 42.4542 39.0725C42.037 39.8585 41.6596 40.665 41.3235 41.4889C41.3235 41.4889 41.3235 41.5249 41.3235 41.5213C41.3235 41.5501 41.3235 41.5213 41.3235 41.5861C41.3252 41.6053 41.3252 41.6246 41.3235 41.6438C41.3235 41.6654 41.3235 41.7014 41.3235 41.7302V41.8202L41.3415 41.9283C41.4055 42.2887 41.5081 42.6413 41.6476 42.9798C41.985 43.7983 42.381 44.5914 42.8324 45.353C43.2897 46.1525 43.7975 46.9484 44.3197 47.7406C44.8419 48.5329 45.4001 49.3288 45.9222 50.0994L44.3917 51.5183C42.8537 50.176 41.4443 48.693 40.1819 47.0888C39.5182 46.2536 38.929 45.3619 38.4209 44.4239C38.1351 43.8843 37.9047 43.3173 37.733 42.7313L37.6646 42.4865L37.6142 42.2164C37.6142 42.1227 37.5818 42.0363 37.571 41.9391L37.5494 41.633C37.536 41.4108 37.5421 41.1879 37.5674 40.9667C37.5802 40.8453 37.6019 40.7249 37.6322 40.6066L37.6754 40.4193C37.6868 40.3681 37.7012 40.3176 37.7186 40.2681C38.3428 38.2749 39.1884 36.3579 40.2395 34.5529C40.7437 33.6634 41.2838 32.8028 41.8492 31.9637C42.1337 31.5423 42.4254 31.1282 42.7243 30.7176C43.0232 30.3071 43.3185 29.9146 43.6679 29.4824L46.9774 32.1041Z" fill="#FFC3BD"/>
<path d="M44.0676 27.97C41.4495 28.4454 39.0259 34.7691 39.0259 34.7691L44.3737 39.3067C44.3737 39.3067 46.2211 36.1052 47.7084 33.0081C49.3398 29.6374 47.2331 27.3974 44.0676 27.97Z" fill="#263238"/>
<path d="M44.8094 49.707L47.6076 49.3469L46.5272 52.7321C46.5272 52.7321 44.0784 52.5016 44.0568 51.1872L44.8094 49.707Z" fill="#FFC3BD"/>
<path d="M49.6062 50.5425L48.5907 53.2975L46.538 52.7429L47.6075 49.3613L49.6062 50.5425Z" fill="#FFC3BD"/>
<path d="M45.7673 27.7C46.0698 29.2017 47.3735 36.4042 45.843 42.2129C45.8409 42.2224 45.8409 42.2322 45.843 42.2417C45.8418 42.5887 45.8659 42.9354 45.915 43.2789C45.92 43.3025 45.931 43.3245 45.9469 43.3426C45.9629 43.3608 45.9833 43.3745 46.0061 43.3824C46.0289 43.3904 46.0534 43.3924 46.0772 43.3881C46.1009 43.3838 46.1232 43.3735 46.1419 43.3581C46.8945 42.7351 49.6675 40.063 49.6855 34.3334C49.7035 29.7707 48.9976 27.7648 48.7311 27.167C48.7024 27.108 48.6553 27.0599 48.5968 27.03C48.5383 27.0001 48.4717 26.99 48.407 27.0013L46.0194 27.3615C45.98 27.3658 45.942 27.3781 45.9076 27.3978C45.8732 27.4175 45.8433 27.444 45.8196 27.4758C45.7959 27.5076 45.7791 27.5439 45.7701 27.5824C45.7611 27.621 45.7602 27.661 45.7673 27.7Z" fill="#1C1C1C"/>
</svg>
